<?xml version="1.0" encoding="UTF-8" standalone="no"?>
<!-- Uploaded to: SVG Repo, www.svgrepo.com, Generator: SVG Repo Mixer Tools -->

<svg
   version="1.1"
   id="Layer_1"
   viewBox="0 0 512.001 512.001"
   xml:space="preserve"
   sodipodi:docname="drone-svgrepo-com.svg"
   inkscape:version="1.3.2 (091e20e, 2023-11-25)"
   xmlns:inkscape="http://www.inkscape.org/namespaces/inkscape"
   xmlns:sodipodi="http://sodipodi.sourceforge.net/DTD/sodipodi-0.dtd"
   xmlns="http://www.w3.org/2000/svg"
   xmlns:svg="http://www.w3.org/2000/svg"><defs
   id="defs18" /><sodipodi:namedview
   id="namedview18"
   pagecolor="#ffffff"
   bordercolor="#000000"
   borderopacity="0.25"
   inkscape:showpageshadow="2"
   inkscape:pageopacity="0.0"
   inkscape:pagecheckerboard="0"
   inkscape:deskcolor="#d1d1d1"
   inkscape:zoom="1.5038814"
   inkscape:cx="284.92939"
   inkscape:cy="182.5277"
   inkscape:window-width="2560"
   inkscape:window-height="1440"
   inkscape:window-x="0"
   inkscape:window-y="0"
   inkscape:window-maximized="0"
   inkscape:current-layer="layer1" />





















<g
   inkscape:groupmode="layer"
   id="layer1"
   inkscape:label="Layer 1"><g
     id="g18"
     inkscape:label="drone"
     transform="matrix(0.19630587,0,0,0.19630587,81.12322,130.22713)"><rect
       x="238.62601"
       y="191.644"
       style="fill:#afb6c7"
       width="34.743"
       height="95.693001"
       id="rect1" /><path
       style="fill:#707287"
       d="m 256.001,122.962 v 0 c -19.291,0 -34.93,15.639 -34.93,34.93 v 33.748 h 69.86 v -33.748 c 0,-19.291 -15.639,-34.93 -34.93,-34.93 z"
       id="path1" /><g
       id="g5">
	<path
   style="fill:#c7cfe2"
   d="m 88.442,137.129 c 0,8.702 -27.998,15.756 -62.538,15.756 -34.54,0 -34.538,-31.512 0,-31.512 34.538,0 62.538,7.055 62.538,15.756 z"
   id="path2" />
	<path
   style="fill:#c7cfe2"
   d="m 88.442,137.129 c 0,8.702 27.998,15.756 62.538,15.756 34.54,0 34.538,-31.512 0,-31.512 -34.538,0 -62.538,7.055 -62.538,15.756 z"
   id="path3" />
	<path
   style="fill:#c7cfe2"
   d="m 423.559,137.129 c 0,8.702 27.998,15.756 62.538,15.756 34.54,0 34.538,-31.512 0,-31.512 -34.538,0 -62.538,7.055 -62.538,15.756 z"
   id="path4" />
	<path
   style="fill:#c7cfe2"
   d="m 423.559,137.129 c 0,8.702 -27.998,15.756 -62.538,15.756 -34.54,0 -34.538,-31.512 0,-31.512 34.538,0 62.538,7.055 62.538,15.756 z"
   id="path5" />
</g><path
       style="opacity:0.1;enable-background:new"
       d="m 42.194,152.342 c 26.637,-1.806 46.247,-7.931 46.247,-15.213 0,-6.752 -16.861,-12.51 -40.55,-14.751 -4.09,9.122 -5.773,19.539 -5.697,29.964 z"
       id="path6" /><path
       style="opacity:0.1;enable-background:new"
       d="m 128.991,122.377 c -23.689,2.242 -40.55,8 -40.55,14.752 0,7.281 19.611,13.407 46.247,15.213 0.076,-10.425 -1.607,-20.842 -5.697,-29.965 z"
       id="path7" /><path
       style="opacity:0.1;enable-background:new"
       d="m 469.806,152.342 c -26.637,-1.806 -46.247,-7.931 -46.247,-15.213 0,-6.752 16.861,-12.51 40.55,-14.751 4.091,9.122 5.774,19.539 5.697,29.964 z"
       id="path8" /><path
       style="opacity:0.1;enable-background:new"
       d="m 383.01,122.377 c 23.689,2.242 40.55,8 40.55,14.752 0,7.281 -19.611,13.407 -46.247,15.213 -0.076,-10.425 1.606,-20.842 5.697,-29.965 z"
       id="path9" /><g
       id="g11">
	<path
   style="fill:#707287"
   d="m 103.114,177.454 c 8.931,-23.221 6.124,-55.373 -14.673,-55.373 -20.797,0 -23.603,32.153 -14.672,55.373 z"
   id="path10" />
	<path
   style="fill:#707287"
   d="m 408.887,177.454 c -8.931,-23.221 -6.124,-55.373 14.673,-55.373 20.797,0 23.604,32.153 14.673,55.373 z"
   id="path11" />
</g><g
       id="g12">
	
		<rect
   x="62.516998"
   y="269.06699"
   transform="matrix(-0.203,0.9792,-0.9792,-0.203,463.4678,198.4554)"
   style="fill:#afb6c7"
   width="176.901"
   height="37.561001"
   id="rect11" />
	
		<rect
   x="272.60599"
   y="269.06799"
   transform="matrix(0.203,0.9792,-0.9792,0.203,569.6185,-124.1227)"
   style="fill:#afb6c7"
   width="176.901"
   height="37.561001"
   id="rect12" />
</g><polygon
       style="opacity:0.1;enable-background:new"
       points="333.162,245.876 371.521,245.876 361.476,197.426 324.699,205.05 "
       id="polygon12" /><rect
       x="238.62601"
       y="191.644"
       style="opacity:0.1;enable-background:new"
       width="34.743"
       height="54.237"
       id="rect13" /><polygon
       style="opacity:0.1;enable-background:new"
       points="187.302,205.05 150.524,197.426 140.48,245.876 178.839,245.876 "
       id="polygon13" /><path
       style="opacity:0.1;enable-background:new"
       d="m 290.931,157.892 c 0,-7.656 -2.47,-14.731 -6.646,-20.487 h -56.568 c -4.177,5.756 -6.646,12.832 -6.646,20.487 v 33.748 h 69.86 z"
       id="path13" /><path
       style="fill:#c7cfe2"
       d="m 390.99,187.538 c -0.056,0 -0.111,0 -0.166,0 -22.096,0 -41.189,-7.314 -50.273,-17.928 -2.986,-3.489 -7.437,-5.376 -12.029,-5.376 H 183.479 c -4.592,0 -9.043,1.888 -12.029,5.376 -9.084,10.615 -28.177,17.928 -50.273,17.928 -0.056,0 -0.111,0 -0.166,0 -8.686,-0.015 -15.782,6.906 -15.782,15.592 v 0.162 c 0,8.701 7.054,15.755 15.755,15.755 h 270.031 c 8.701,0 15.755,-7.054 15.755,-15.755 v -0.162 c 0.001,-8.687 -7.094,-15.607 -15.78,-15.592 z"
       id="path14" /><path
       style="fill:#afb6c7"
       d="m 92.431,160.367 h -7.979 c -14.08,0 -24.882,12.494 -22.847,26.426 l 3.989,27.323 c 1.656,11.343 11.384,19.755 22.847,19.755 11.463,0 21.191,-8.41 22.847,-19.755 l 3.989,-27.323 c 2.036,-13.933 -8.767,-26.426 -22.846,-26.426 z"
       id="path15" /><rect
       x="207.70799"
       y="263.83401"
       style="fill:#5b5d6e"
       width="96.583"
       height="96.583"
       id="rect15" /><circle
       style="fill:#2a2a33"
       cx="256"
       cy="312.12601"
       r="24.790001"
       id="circle15" /><circle
       style="fill:#ff6465"
       cx="256"
       cy="312.12601"
       r="7.4130001"
       id="circle16" /><path
       style="fill:#c7cfe2"
       d="m 110.703,354.97 -0.959,4.626 c -2.891,13.948 6.071,27.598 20.019,30.489 13.948,2.891 27.598,-6.071 30.489,-20.018 l 0.959,-4.626 z"
       id="path16" /><path
       style="fill:#afb6c7"
       d="m 419.57,160.367 h 7.979 c 14.08,0 24.882,12.494 22.847,26.426 l -3.989,27.323 c -1.656,11.343 -11.384,19.755 -22.847,19.755 -11.463,0 -21.191,-8.41 -22.847,-19.755 l -3.989,-27.323 c -2.036,-13.933 8.766,-26.426 22.846,-26.426 z"
       id="path17" /><path
       style="fill:#c7cfe2"
       d="m 401.298,354.97 0.959,4.626 c 2.891,13.948 -6.071,27.598 -20.018,30.489 -13.948,2.891 -27.598,-6.071 -30.489,-20.018 l -0.959,-4.626 z"
       id="path18" /></g><g
     id="g36"
     inkscape:label="drone"
     transform="matrix(0.26306702,0,0,0.26306702,377.31061,287.86593)"><rect
       x="238.62601"
       y="191.644"
       style="fill:#afb6c7"
       width="34.743"
       height="95.693001"
       id="rect18" /><path
       style="fill:#707287"
       d="m 256.001,122.962 v 0 c -19.291,0 -34.93,15.639 -34.93,34.93 v 33.748 h 69.86 v -33.748 c 0,-19.291 -15.639,-34.93 -34.93,-34.93 z"
       id="path19" /><g
       id="g23">
	<path
   style="fill:#c7cfe2"
   d="m 88.442,137.129 c 0,8.702 -27.998,15.756 -62.538,15.756 -34.54,0 -34.538,-31.512 0,-31.512 34.538,0 62.538,7.055 62.538,15.756 z"
   id="path20" />
	<path
   style="fill:#c7cfe2"
   d="m 88.442,137.129 c 0,8.702 27.998,15.756 62.538,15.756 34.54,0 34.538,-31.512 0,-31.512 -34.538,0 -62.538,7.055 -62.538,15.756 z"
   id="path21" />
	<path
   style="fill:#c7cfe2"
   d="m 423.559,137.129 c 0,8.702 27.998,15.756 62.538,15.756 34.54,0 34.538,-31.512 0,-31.512 -34.538,0 -62.538,7.055 -62.538,15.756 z"
   id="path22" />
	<path
   style="fill:#c7cfe2"
   d="m 423.559,137.129 c 0,8.702 -27.998,15.756 -62.538,15.756 -34.54,0 -34.538,-31.512 0,-31.512 34.538,0 62.538,7.055 62.538,15.756 z"
   id="path23" />
</g><path
       style="opacity:0.1;enable-background:new"
       d="m 42.194,152.342 c 26.637,-1.806 46.247,-7.931 46.247,-15.213 0,-6.752 -16.861,-12.51 -40.55,-14.751 -4.09,9.122 -5.773,19.539 -5.697,29.964 z"
       id="path24" /><path
       style="opacity:0.1;enable-background:new"
       d="m 128.991,122.377 c -23.689,2.242 -40.55,8 -40.55,14.752 0,7.281 19.611,13.407 46.247,15.213 0.076,-10.425 -1.607,-20.842 -5.697,-29.965 z"
       id="path25" /><path
       style="opacity:0.1;enable-background:new"
       d="m 469.806,152.342 c -26.637,-1.806 -46.247,-7.931 -46.247,-15.213 0,-6.752 16.861,-12.51 40.55,-14.751 4.091,9.122 5.774,19.539 5.697,29.964 z"
       id="path26" /><path
       style="opacity:0.1;enable-background:new"
       d="m 383.01,122.377 c 23.689,2.242 40.55,8 40.55,14.752 0,7.281 -19.611,13.407 -46.247,15.213 -0.076,-10.425 1.606,-20.842 5.697,-29.965 z"
       id="path27" /><g
       id="g29">
	<path
   style="fill:#707287"
   d="m 103.114,177.454 c 8.931,-23.221 6.124,-55.373 -14.673,-55.373 -20.797,0 -23.603,32.153 -14.672,55.373 z"
   id="path28" />
	<path
   style="fill:#707287"
   d="m 408.887,177.454 c -8.931,-23.221 -6.124,-55.373 14.673,-55.373 20.797,0 23.604,32.153 14.673,55.373 z"
   id="path29" />
</g><g
       id="g30">
	
		<rect
   x="62.516998"
   y="269.06699"
   transform="matrix(-0.203,0.9792,-0.9792,-0.203,463.4678,198.4554)"
   style="fill:#afb6c7"
   width="176.901"
   height="37.561001"
   id="rect29" />
	
		<rect
   x="272.60599"
   y="269.06799"
   transform="matrix(0.203,0.9792,-0.9792,0.203,569.6185,-124.1227)"
   style="fill:#afb6c7"
   width="176.901"
   height="37.561001"
   id="rect30" />
</g><polygon
       style="opacity:0.1;enable-background:new"
       points="324.699,205.05 333.162,245.876 371.521,245.876 361.476,197.426 "
       id="polygon30" /><rect
       x="238.62601"
       y="191.644"
       style="opacity:0.1;enable-background:new"
       width="34.743"
       height="54.237"
       id="rect31" /><polygon
       style="opacity:0.1;enable-background:new"
       points="178.839,245.876 187.302,205.05 150.524,197.426 140.48,245.876 "
       id="polygon31" /><path
       style="opacity:0.1;enable-background:new"
       d="m 290.931,157.892 c 0,-7.656 -2.47,-14.731 -6.646,-20.487 h -56.568 c -4.177,5.756 -6.646,12.832 -6.646,20.487 v 33.748 h 69.86 z"
       id="path31" /><path
       style="fill:#c7cfe2"
       d="m 390.99,187.538 c -0.056,0 -0.111,0 -0.166,0 -22.096,0 -41.189,-7.314 -50.273,-17.928 -2.986,-3.489 -7.437,-5.376 -12.029,-5.376 H 183.479 c -4.592,0 -9.043,1.888 -12.029,5.376 -9.084,10.615 -28.177,17.928 -50.273,17.928 -0.056,0 -0.111,0 -0.166,0 -8.686,-0.015 -15.782,6.906 -15.782,15.592 v 0.162 c 0,8.701 7.054,15.755 15.755,15.755 h 270.031 c 8.701,0 15.755,-7.054 15.755,-15.755 v -0.162 c 0.001,-8.687 -7.094,-15.607 -15.78,-15.592 z"
       id="path32" /><path
       style="fill:#afb6c7"
       d="m 92.431,160.367 h -7.979 c -14.08,0 -24.882,12.494 -22.847,26.426 l 3.989,27.323 c 1.656,11.343 11.384,19.755 22.847,19.755 11.463,0 21.191,-8.41 22.847,-19.755 l 3.989,-27.323 c 2.036,-13.933 -8.767,-26.426 -22.846,-26.426 z"
       id="path33" /><rect
       x="207.70799"
       y="263.83401"
       style="fill:#5b5d6e"
       width="96.583"
       height="96.583"
       id="rect33" /><circle
       style="fill:#2a2a33"
       cx="256"
       cy="312.12601"
       r="24.790001"
       id="circle33" /><circle
       style="fill:#ff6465"
       cx="256"
       cy="312.12601"
       r="7.4130001"
       id="circle34" /><path
       style="fill:#c7cfe2"
       d="m 110.703,354.97 -0.959,4.626 c -2.891,13.948 6.071,27.598 20.019,30.489 13.948,2.891 27.598,-6.071 30.489,-20.018 l 0.959,-4.626 z"
       id="path34" /><path
       style="fill:#afb6c7"
       d="m 419.57,160.367 h 7.979 c 14.08,0 24.882,12.494 22.847,26.426 l -3.989,27.323 c -1.656,11.343 -11.384,19.755 -22.847,19.755 -11.463,0 -21.191,-8.41 -22.847,-19.755 l -3.989,-27.323 c -2.036,-13.933 8.766,-26.426 22.846,-26.426 z"
       id="path35" /><path
       style="fill:#c7cfe2"
       d="m 401.298,354.97 0.959,4.626 c 2.891,13.948 -6.071,27.598 -20.018,30.489 -13.948,2.891 -27.598,-6.071 -30.489,-20.018 l -0.959,-4.626 z"
       id="path36" /></g><g
     id="g54"
     inkscape:label="drone"
     transform="matrix(0.12449538,0,0,0.12449538,42.55633,307.85062)"><rect
       x="238.62601"
       y="191.644"
       style="fill:#afb6c7"
       width="34.743"
       height="95.693001"
       id="rect36" /><path
       style="fill:#707287"
       d="m 256.001,122.962 v 0 c -19.291,0 -34.93,15.639 -34.93,34.93 v 33.748 h 69.86 v -33.748 c 0,-19.291 -15.639,-34.93 -34.93,-34.93 z"
       id="path37" /><g
       id="g41">
	<path
   style="fill:#c7cfe2"
   d="m 88.442,137.129 c 0,8.702 -27.998,15.756 -62.538,15.756 -34.54,0 -34.538,-31.512 0,-31.512 34.538,0 62.538,7.055 62.538,15.756 z"
   id="path38" />
	<path
   style="fill:#c7cfe2"
   d="m 88.442,137.129 c 0,8.702 27.998,15.756 62.538,15.756 34.54,0 34.538,-31.512 0,-31.512 -34.538,0 -62.538,7.055 -62.538,15.756 z"
   id="path39" />
	<path
   style="fill:#c7cfe2"
   d="m 423.559,137.129 c 0,8.702 27.998,15.756 62.538,15.756 34.54,0 34.538,-31.512 0,-31.512 -34.538,0 -62.538,7.055 -62.538,15.756 z"
   id="path40" />
	<path
   style="fill:#c7cfe2"
   d="m 423.559,137.129 c 0,8.702 -27.998,15.756 -62.538,15.756 -34.54,0 -34.538,-31.512 0,-31.512 34.538,0 62.538,7.055 62.538,15.756 z"
   id="path41" />
</g><path
       style="opacity:0.1;enable-background:new"
       d="m 42.194,152.342 c 26.637,-1.806 46.247,-7.931 46.247,-15.213 0,-6.752 -16.861,-12.51 -40.55,-14.751 -4.09,9.122 -5.773,19.539 -5.697,29.964 z"
       id="path42" /><path
       style="opacity:0.1;enable-background:new"
       d="m 128.991,122.377 c -23.689,2.242 -40.55,8 -40.55,14.752 0,7.281 19.611,13.407 46.247,15.213 0.076,-10.425 -1.607,-20.842 -5.697,-29.965 z"
       id="path43" /><path
       style="opacity:0.1;enable-background:new"
       d="m 469.806,152.342 c -26.637,-1.806 -46.247,-7.931 -46.247,-15.213 0,-6.752 16.861,-12.51 40.55,-14.751 4.091,9.122 5.774,19.539 5.697,29.964 z"
       id="path44" /><path
       style="opacity:0.1;enable-background:new"
       d="m 383.01,122.377 c 23.689,2.242 40.55,8 40.55,14.752 0,7.281 -19.611,13.407 -46.247,15.213 -0.076,-10.425 1.606,-20.842 5.697,-29.965 z"
       id="path45" /><g
       id="g47">
	<path
   style="fill:#707287"
   d="m 103.114,177.454 c 8.931,-23.221 6.124,-55.373 -14.673,-55.373 -20.797,0 -23.603,32.153 -14.672,55.373 z"
   id="path46" />
	<path
   style="fill:#707287"
   d="m 408.887,177.454 c -8.931,-23.221 -6.124,-55.373 14.673,-55.373 20.797,0 23.604,32.153 14.673,55.373 z"
   id="path47" />
</g><g
       id="g48">
	
		<rect
   x="62.516998"
   y="269.06699"
   transform="matrix(-0.203,0.9792,-0.9792,-0.203,463.4678,198.4554)"
   style="fill:#afb6c7"
   width="176.901"
   height="37.561001"
   id="rect47" />
	
		<rect
   x="272.60599"
   y="269.06799"
   transform="matrix(0.203,0.9792,-0.9792,0.203,569.6185,-124.1227)"
   style="fill:#afb6c7"
   width="176.901"
   height="37.561001"
   id="rect48" />
</g><polygon
       style="opacity:0.1;enable-background:new"
       points="371.521,245.876 361.476,197.426 324.699,205.05 333.162,245.876 "
       id="polygon48" /><rect
       x="238.62601"
       y="191.644"
       style="opacity:0.1;enable-background:new"
       width="34.743"
       height="54.237"
       id="rect49" /><polygon
       style="opacity:0.1;enable-background:new"
       points="150.524,197.426 140.48,245.876 178.839,245.876 187.302,205.05 "
       id="polygon49" /><path
       style="opacity:0.1;enable-background:new"
       d="m 290.931,157.892 c 0,-7.656 -2.47,-14.731 -6.646,-20.487 h -56.568 c -4.177,5.756 -6.646,12.832 -6.646,20.487 v 33.748 h 69.86 z"
       id="path49" /><path
       style="fill:#c7cfe2"
       d="m 390.99,187.538 c -0.056,0 -0.111,0 -0.166,0 -22.096,0 -41.189,-7.314 -50.273,-17.928 -2.986,-3.489 -7.437,-5.376 -12.029,-5.376 H 183.479 c -4.592,0 -9.043,1.888 -12.029,5.376 -9.084,10.615 -28.177,17.928 -50.273,17.928 -0.056,0 -0.111,0 -0.166,0 -8.686,-0.015 -15.782,6.906 -15.782,15.592 v 0.162 c 0,8.701 7.054,15.755 15.755,15.755 h 270.031 c 8.701,0 15.755,-7.054 15.755,-15.755 v -0.162 c 0.001,-8.687 -7.094,-15.607 -15.78,-15.592 z"
       id="path50" /><path
       style="fill:#afb6c7"
       d="m 92.431,160.367 h -7.979 c -14.08,0 -24.882,12.494 -22.847,26.426 l 3.989,27.323 c 1.656,11.343 11.384,19.755 22.847,19.755 11.463,0 21.191,-8.41 22.847,-19.755 l 3.989,-27.323 c 2.036,-13.933 -8.767,-26.426 -22.846,-26.426 z"
       id="path51" /><rect
       x="207.70799"
       y="263.83401"
       style="fill:#5b5d6e"
       width="96.583"
       height="96.583"
       id="rect51" /><circle
       style="fill:#2a2a33"
       cx="256"
       cy="312.12601"
       r="24.790001"
       id="circle51" /><circle
       style="fill:#ff6465"
       cx="256"
       cy="312.12601"
       r="7.4130001"
       id="circle52" /><path
       style="fill:#c7cfe2"
       d="m 110.703,354.97 -0.959,4.626 c -2.891,13.948 6.071,27.598 20.019,30.489 13.948,2.891 27.598,-6.071 30.489,-20.018 l 0.959,-4.626 z"
       id="path52" /><path
       style="fill:#afb6c7"
       d="m 419.57,160.367 h 7.979 c 14.08,0 24.882,12.494 22.847,26.426 l -3.989,27.323 c -1.656,11.343 -11.384,19.755 -22.847,19.755 -11.463,0 -21.191,-8.41 -22.847,-19.755 l -3.989,-27.323 c -2.036,-13.933 8.766,-26.426 22.846,-26.426 z"
       id="path53" /><path
       style="fill:#c7cfe2"
       d="m 401.298,354.97 0.959,4.626 c 2.891,13.948 -6.071,27.598 -20.018,30.489 -13.948,2.891 -27.598,-6.071 -30.489,-20.018 l -0.959,-4.626 z"
       id="path54" /></g><g
     id="g72"
     inkscape:label="drone"
     transform="matrix(0.213285,0,0,0.213285,187.30205,17.395643)"><rect
       x="238.62601"
       y="191.644"
       style="fill:#afb6c7"
       width="34.743"
       height="95.693001"
       id="rect54" /><path
       style="fill:#707287"
       d="m 256.001,122.962 v 0 c -19.291,0 -34.93,15.639 -34.93,34.93 v 33.748 h 69.86 v -33.748 c 0,-19.291 -15.639,-34.93 -34.93,-34.93 z"
       id="path55" /><g
       id="g59">
	<path
   style="fill:#c7cfe2"
   d="m 88.442,137.129 c 0,8.702 -27.998,15.756 -62.538,15.756 -34.54,0 -34.538,-31.512 0,-31.512 34.538,0 62.538,7.055 62.538,15.756 z"
   id="path56" />
	<path
   style="fill:#c7cfe2"
   d="m 88.442,137.129 c 0,8.702 27.998,15.756 62.538,15.756 34.54,0 34.538,-31.512 0,-31.512 -34.538,0 -62.538,7.055 -62.538,15.756 z"
   id="path57" />
	<path
   style="fill:#c7cfe2"
   d="m 423.559,137.129 c 0,8.702 27.998,15.756 62.538,15.756 34.54,0 34.538,-31.512 0,-31.512 -34.538,0 -62.538,7.055 -62.538,15.756 z"
   id="path58" />
	<path
   style="fill:#c7cfe2"
   d="m 423.559,137.129 c 0,8.702 -27.998,15.756 -62.538,15.756 -34.54,0 -34.538,-31.512 0,-31.512 34.538,0 62.538,7.055 62.538,15.756 z"
   id="path59" />
</g><path
       style="opacity:0.1;enable-background:new"
       d="m 42.194,152.342 c 26.637,-1.806 46.247,-7.931 46.247,-15.213 0,-6.752 -16.861,-12.51 -40.55,-14.751 -4.09,9.122 -5.773,19.539 -5.697,29.964 z"
       id="path60" /><path
       style="opacity:0.1;enable-background:new"
       d="m 128.991,122.377 c -23.689,2.242 -40.55,8 -40.55,14.752 0,7.281 19.611,13.407 46.247,15.213 0.076,-10.425 -1.607,-20.842 -5.697,-29.965 z"
       id="path61" /><path
       style="opacity:0.1;enable-background:new"
       d="m 469.806,152.342 c -26.637,-1.806 -46.247,-7.931 -46.247,-15.213 0,-6.752 16.861,-12.51 40.55,-14.751 4.091,9.122 5.774,19.539 5.697,29.964 z"
       id="path62" /><path
       style="opacity:0.1;enable-background:new"
       d="m 383.01,122.377 c 23.689,2.242 40.55,8 40.55,14.752 0,7.281 -19.611,13.407 -46.247,15.213 -0.076,-10.425 1.606,-20.842 5.697,-29.965 z"
       id="path63" /><g
       id="g65">
	<path
   style="fill:#707287"
   d="m 103.114,177.454 c 8.931,-23.221 6.124,-55.373 -14.673,-55.373 -20.797,0 -23.603,32.153 -14.672,55.373 z"
   id="path64" />
	<path
   style="fill:#707287"
   d="m 408.887,177.454 c -8.931,-23.221 -6.124,-55.373 14.673,-55.373 20.797,0 23.604,32.153 14.673,55.373 z"
   id="path65" />
</g><g
       id="g66">
	
		<rect
   x="62.516998"
   y="269.06699"
   transform="matrix(-0.203,0.9792,-0.9792,-0.203,463.4678,198.4554)"
   style="fill:#afb6c7"
   width="176.901"
   height="37.561001"
   id="rect65" />
	
		<rect
   x="272.60599"
   y="269.06799"
   transform="matrix(0.203,0.9792,-0.9792,0.203,569.6185,-124.1227)"
   style="fill:#afb6c7"
   width="176.901"
   height="37.561001"
   id="rect66" />
</g><polygon
       style="opacity:0.1;enable-background:new"
       points="333.162,245.876 371.521,245.876 361.476,197.426 324.699,205.05 "
       id="polygon66" /><rect
       x="238.62601"
       y="191.644"
       style="opacity:0.1;enable-background:new"
       width="34.743"
       height="54.237"
       id="rect67" /><polygon
       style="opacity:0.1;enable-background:new"
       points="187.302,205.05 150.524,197.426 140.48,245.876 178.839,245.876 "
       id="polygon67" /><path
       style="opacity:0.1;enable-background:new"
       d="m 290.931,157.892 c 0,-7.656 -2.47,-14.731 -6.646,-20.487 h -56.568 c -4.177,5.756 -6.646,12.832 -6.646,20.487 v 33.748 h 69.86 z"
       id="path67" /><path
       style="fill:#c7cfe2"
       d="m 390.99,187.538 c -0.056,0 -0.111,0 -0.166,0 -22.096,0 -41.189,-7.314 -50.273,-17.928 -2.986,-3.489 -7.437,-5.376 -12.029,-5.376 H 183.479 c -4.592,0 -9.043,1.888 -12.029,5.376 -9.084,10.615 -28.177,17.928 -50.273,17.928 -0.056,0 -0.111,0 -0.166,0 -8.686,-0.015 -15.782,6.906 -15.782,15.592 v 0.162 c 0,8.701 7.054,15.755 15.755,15.755 h 270.031 c 8.701,0 15.755,-7.054 15.755,-15.755 v -0.162 c 0.001,-8.687 -7.094,-15.607 -15.78,-15.592 z"
       id="path68" /><path
       style="fill:#afb6c7"
       d="m 92.431,160.367 h -7.979 c -14.08,0 -24.882,12.494 -22.847,26.426 l 3.989,27.323 c 1.656,11.343 11.384,19.755 22.847,19.755 11.463,0 21.191,-8.41 22.847,-19.755 l 3.989,-27.323 c 2.036,-13.933 -8.767,-26.426 -22.846,-26.426 z"
       id="path69" /><rect
       x="207.70799"
       y="263.83401"
       style="fill:#5b5d6e"
       width="96.583"
       height="96.583"
       id="rect69" /><circle
       style="fill:#2a2a33"
       cx="256"
       cy="312.12601"
       r="24.790001"
       id="circle69" /><circle
       style="fill:#ff6465"
       cx="256"
       cy="312.12601"
       r="7.4130001"
       id="circle70" /><path
       style="fill:#c7cfe2"
       d="m 110.703,354.97 -0.959,4.626 c -2.891,13.948 6.071,27.598 20.019,30.489 13.948,2.891 27.598,-6.071 30.489,-20.018 l 0.959,-4.626 z"
       id="path70" /><path
       style="fill:#afb6c7"
       d="m 419.57,160.367 h 7.979 c 14.08,0 24.882,12.494 22.847,26.426 l -3.989,27.323 c -1.656,11.343 -11.384,19.755 -22.847,19.755 -11.463,0 -21.191,-8.41 -22.847,-19.755 l -3.989,-27.323 c -2.036,-13.933 8.766,-26.426 22.846,-26.426 z"
       id="path71" /><path
       style="fill:#c7cfe2"
       d="m 401.298,354.97 0.959,4.626 c 2.891,13.948 -6.071,27.598 -20.018,30.489 -13.948,2.891 -27.598,-6.071 -30.489,-20.018 l -0.959,-4.626 z"
       id="path72" /></g><g
     id="g90"
     inkscape:label="drone"
     transform="matrix(0.19630587,0,0,0.19630587,327.05614,103.79906)"><rect
       x="238.62601"
       y="191.644"
       style="fill:#afb6c7"
       width="34.743"
       height="95.693001"
       id="rect72" /><path
       style="fill:#707287"
       d="m 256.001,122.962 v 0 c -19.291,0 -34.93,15.639 -34.93,34.93 v 33.748 h 69.86 v -33.748 c 0,-19.291 -15.639,-34.93 -34.93,-34.93 z"
       id="path73" /><g
       id="g77">
	<path
   style="fill:#c7cfe2"
   d="m 88.442,137.129 c 0,8.702 -27.998,15.756 -62.538,15.756 -34.54,0 -34.538,-31.512 0,-31.512 34.538,0 62.538,7.055 62.538,15.756 z"
   id="path74" />
	<path
   style="fill:#c7cfe2"
   d="m 88.442,137.129 c 0,8.702 27.998,15.756 62.538,15.756 34.54,0 34.538,-31.512 0,-31.512 -34.538,0 -62.538,7.055 -62.538,15.756 z"
   id="path75" />
	<path
   style="fill:#c7cfe2"
   d="m 423.559,137.129 c 0,8.702 27.998,15.756 62.538,15.756 34.54,0 34.538,-31.512 0,-31.512 -34.538,0 -62.538,7.055 -62.538,15.756 z"
   id="path76" />
	<path
   style="fill:#c7cfe2"
   d="m 423.559,137.129 c 0,8.702 -27.998,15.756 -62.538,15.756 -34.54,0 -34.538,-31.512 0,-31.512 34.538,0 62.538,7.055 62.538,15.756 z"
   id="path77" />
</g><path
       style="opacity:0.1;enable-background:new"
       d="m 42.194,152.342 c 26.637,-1.806 46.247,-7.931 46.247,-15.213 0,-6.752 -16.861,-12.51 -40.55,-14.751 -4.09,9.122 -5.773,19.539 -5.697,29.964 z"
       id="path78" /><path
       style="opacity:0.1;enable-background:new"
       d="m 128.991,122.377 c -23.689,2.242 -40.55,8 -40.55,14.752 0,7.281 19.611,13.407 46.247,15.213 0.076,-10.425 -1.607,-20.842 -5.697,-29.965 z"
       id="path79" /><path
       style="opacity:0.1;enable-background:new"
       d="m 469.806,152.342 c -26.637,-1.806 -46.247,-7.931 -46.247,-15.213 0,-6.752 16.861,-12.51 40.55,-14.751 4.091,9.122 5.774,19.539 5.697,29.964 z"
       id="path80" /><path
       style="opacity:0.1;enable-background:new"
       d="m 383.01,122.377 c 23.689,2.242 40.55,8 40.55,14.752 0,7.281 -19.611,13.407 -46.247,15.213 -0.076,-10.425 1.606,-20.842 5.697,-29.965 z"
       id="path81" /><g
       id="g83">
	<path
   style="fill:#707287"
   d="m 103.114,177.454 c 8.931,-23.221 6.124,-55.373 -14.673,-55.373 -20.797,0 -23.603,32.153 -14.672,55.373 z"
   id="path82" />
	<path
   style="fill:#707287"
   d="m 408.887,177.454 c -8.931,-23.221 -6.124,-55.373 14.673,-55.373 20.797,0 23.604,32.153 14.673,55.373 z"
   id="path83" />
</g><g
       id="g84">
	
		<rect
   x="62.516998"
   y="269.06699"
   transform="matrix(-0.203,0.9792,-0.9792,-0.203,463.4678,198.4554)"
   style="fill:#afb6c7"
   width="176.901"
   height="37.561001"
   id="rect83" />
	
		<rect
   x="272.60599"
   y="269.06799"
   transform="matrix(0.203,0.9792,-0.9792,0.203,569.6185,-124.1227)"
   style="fill:#afb6c7"
   width="176.901"
   height="37.561001"
   id="rect84" />
</g><polygon
       style="opacity:0.1;enable-background:new"
       points="371.521,245.876 361.476,197.426 324.699,205.05 333.162,245.876 "
       id="polygon84" /><rect
       x="238.62601"
       y="191.644"
       style="opacity:0.1;enable-background:new"
       width="34.743"
       height="54.237"
       id="rect85" /><polygon
       style="opacity:0.1;enable-background:new"
       points="150.524,197.426 140.48,245.876 178.839,245.876 187.302,205.05 "
       id="polygon85" /><path
       style="opacity:0.1;enable-background:new"
       d="m 290.931,157.892 c 0,-7.656 -2.47,-14.731 -6.646,-20.487 h -56.568 c -4.177,5.756 -6.646,12.832 -6.646,20.487 v 33.748 h 69.86 z"
       id="path85" /><path
       style="fill:#c7cfe2"
       d="m 390.99,187.538 c -0.056,0 -0.111,0 -0.166,0 -22.096,0 -41.189,-7.314 -50.273,-17.928 -2.986,-3.489 -7.437,-5.376 -12.029,-5.376 H 183.479 c -4.592,0 -9.043,1.888 -12.029,5.376 -9.084,10.615 -28.177,17.928 -50.273,17.928 -0.056,0 -0.111,0 -0.166,0 -8.686,-0.015 -15.782,6.906 -15.782,15.592 v 0.162 c 0,8.701 7.054,15.755 15.755,15.755 h 270.031 c 8.701,0 15.755,-7.054 15.755,-15.755 v -0.162 c 0.001,-8.687 -7.094,-15.607 -15.78,-15.592 z"
       id="path86" /><path
       style="fill:#afb6c7"
       d="m 92.431,160.367 h -7.979 c -14.08,0 -24.882,12.494 -22.847,26.426 l 3.989,27.323 c 1.656,11.343 11.384,19.755 22.847,19.755 11.463,0 21.191,-8.41 22.847,-19.755 l 3.989,-27.323 c 2.036,-13.933 -8.767,-26.426 -22.846,-26.426 z"
       id="path87" /><rect
       x="207.70799"
       y="263.83401"
       style="fill:#5b5d6e"
       width="96.583"
       height="96.583"
       id="rect87" /><circle
       style="fill:#2a2a33"
       cx="256"
       cy="312.12601"
       r="24.790001"
       id="circle87" /><circle
       style="fill:#ff6465"
       cx="256"
       cy="312.12601"
       r="7.4130001"
       id="circle88" /><path
       style="fill:#c7cfe2"
       d="m 110.703,354.97 -0.959,4.626 c -2.891,13.948 6.071,27.598 20.019,30.489 13.948,2.891 27.598,-6.071 30.489,-20.018 l 0.959,-4.626 z"
       id="path88" /><path
       style="fill:#afb6c7"
       d="m 419.57,160.367 h 7.979 c 14.08,0 24.882,12.494 22.847,26.426 l -3.989,27.323 c -1.656,11.343 -11.384,19.755 -22.847,19.755 -11.463,0 -21.191,-8.41 -22.847,-19.755 l -3.989,-27.323 c -2.036,-13.933 8.766,-26.426 22.846,-26.426 z"
       id="path89" /><path
       style="fill:#c7cfe2"
       d="m 401.298,354.97 0.959,4.626 c 2.891,13.948 -6.071,27.598 -20.018,30.489 -13.948,2.891 -27.598,-6.071 -30.489,-20.018 l -0.959,-4.626 z"
       id="path90" /></g><g
     id="g108"
     inkscape:label="drone"
     transform="matrix(0.19630587,0,0,0.19630587,233.16303,238.51534)"><rect
       x="238.62601"
       y="191.644"
       style="fill:#afb6c7"
       width="34.743"
       height="95.693001"
       id="rect90" /><path
       style="fill:#707287"
       d="m 256.001,122.962 v 0 c -19.291,0 -34.93,15.639 -34.93,34.93 v 33.748 h 69.86 v -33.748 c 0,-19.291 -15.639,-34.93 -34.93,-34.93 z"
       id="path91" /><g
       id="g95">
	<path
   style="fill:#c7cfe2"
   d="m 88.442,137.129 c 0,8.702 -27.998,15.756 -62.538,15.756 -34.54,0 -34.538,-31.512 0,-31.512 34.538,0 62.538,7.055 62.538,15.756 z"
   id="path92" />
	<path
   style="fill:#c7cfe2"
   d="m 88.442,137.129 c 0,8.702 27.998,15.756 62.538,15.756 34.54,0 34.538,-31.512 0,-31.512 -34.538,0 -62.538,7.055 -62.538,15.756 z"
   id="path93" />
	<path
   style="fill:#c7cfe2"
   d="m 423.559,137.129 c 0,8.702 27.998,15.756 62.538,15.756 34.54,0 34.538,-31.512 0,-31.512 -34.538,0 -62.538,7.055 -62.538,15.756 z"
   id="path94" />
	<path
   style="fill:#c7cfe2"
   d="m 423.559,137.129 c 0,8.702 -27.998,15.756 -62.538,15.756 -34.54,0 -34.538,-31.512 0,-31.512 34.538,0 62.538,7.055 62.538,15.756 z"
   id="path95" />
</g><path
       style="opacity:0.1;enable-background:new"
       d="m 42.194,152.342 c 26.637,-1.806 46.247,-7.931 46.247,-15.213 0,-6.752 -16.861,-12.51 -40.55,-14.751 -4.09,9.122 -5.773,19.539 -5.697,29.964 z"
       id="path96" /><path
       style="opacity:0.1;enable-background:new"
       d="m 128.991,122.377 c -23.689,2.242 -40.55,8 -40.55,14.752 0,7.281 19.611,13.407 46.247,15.213 0.076,-10.425 -1.607,-20.842 -5.697,-29.965 z"
       id="path97" /><path
       style="opacity:0.1;enable-background:new"
       d="m 469.806,152.342 c -26.637,-1.806 -46.247,-7.931 -46.247,-15.213 0,-6.752 16.861,-12.51 40.55,-14.751 4.091,9.122 5.774,19.539 5.697,29.964 z"
       id="path98" /><path
       style="opacity:0.1;enable-background:new"
       d="m 383.01,122.377 c 23.689,2.242 40.55,8 40.55,14.752 0,7.281 -19.611,13.407 -46.247,15.213 -0.076,-10.425 1.606,-20.842 5.697,-29.965 z"
       id="path99" /><g
       id="g101">
	<path
   style="fill:#707287"
   d="m 103.114,177.454 c 8.931,-23.221 6.124,-55.373 -14.673,-55.373 -20.797,0 -23.603,32.153 -14.672,55.373 z"
   id="path100" />
	<path
   style="fill:#707287"
   d="m 408.887,177.454 c -8.931,-23.221 -6.124,-55.373 14.673,-55.373 20.797,0 23.604,32.153 14.673,55.373 z"
   id="path101" />
</g><g
       id="g102">
	
		<rect
   x="62.516998"
   y="269.06699"
   transform="matrix(-0.203,0.9792,-0.9792,-0.203,463.4678,198.4554)"
   style="fill:#afb6c7"
   width="176.901"
   height="37.561001"
   id="rect101" />
	
		<rect
   x="272.60599"
   y="269.06799"
   transform="matrix(0.203,0.9792,-0.9792,0.203,569.6185,-124.1227)"
   style="fill:#afb6c7"
   width="176.901"
   height="37.561001"
   id="rect102" />
</g><polygon
       style="opacity:0.1;enable-background:new"
       points="324.699,205.05 333.162,245.876 371.521,245.876 361.476,197.426 "
       id="polygon102" /><rect
       x="238.62601"
       y="191.644"
       style="opacity:0.1;enable-background:new"
       width="34.743"
       height="54.237"
       id="rect103" /><polygon
       style="opacity:0.1;enable-background:new"
       points="178.839,245.876 187.302,205.05 150.524,197.426 140.48,245.876 "
       id="polygon103" /><path
       style="opacity:0.1;enable-background:new"
       d="m 290.931,157.892 c 0,-7.656 -2.47,-14.731 -6.646,-20.487 h -56.568 c -4.177,5.756 -6.646,12.832 -6.646,20.487 v 33.748 h 69.86 z"
       id="path103" /><path
       style="fill:#c7cfe2"
       d="m 390.99,187.538 c -0.056,0 -0.111,0 -0.166,0 -22.096,0 -41.189,-7.314 -50.273,-17.928 -2.986,-3.489 -7.437,-5.376 -12.029,-5.376 H 183.479 c -4.592,0 -9.043,1.888 -12.029,5.376 -9.084,10.615 -28.177,17.928 -50.273,17.928 -0.056,0 -0.111,0 -0.166,0 -8.686,-0.015 -15.782,6.906 -15.782,15.592 v 0.162 c 0,8.701 7.054,15.755 15.755,15.755 h 270.031 c 8.701,0 15.755,-7.054 15.755,-15.755 v -0.162 c 0.001,-8.687 -7.094,-15.607 -15.78,-15.592 z"
       id="path104" /><path
       style="fill:#afb6c7"
       d="m 92.431,160.367 h -7.979 c -14.08,0 -24.882,12.494 -22.847,26.426 l 3.989,27.323 c 1.656,11.343 11.384,19.755 22.847,19.755 11.463,0 21.191,-8.41 22.847,-19.755 l 3.989,-27.323 c 2.036,-13.933 -8.767,-26.426 -22.846,-26.426 z"
       id="path105" /><rect
       x="207.70799"
       y="263.83401"
       style="fill:#5b5d6e"
       width="96.583"
       height="96.583"
       id="rect105" /><circle
       style="fill:#2a2a33"
       cx="256"
       cy="312.12601"
       r="24.790001"
       id="circle105" /><circle
       style="fill:#ff6465"
       cx="256"
       cy="312.12601"
       r="7.4130001"
       id="circle106" /><path
       style="fill:#c7cfe2"
       d="m 110.703,354.97 -0.959,4.626 c -2.891,13.948 6.071,27.598 20.019,30.489 13.948,2.891 27.598,-6.071 30.489,-20.018 l 0.959,-4.626 z"
       id="path106" /><path
       style="fill:#afb6c7"
       d="m 419.57,160.367 h 7.979 c 14.08,0 24.882,12.494 22.847,26.426 l -3.989,27.323 c -1.656,11.343 -11.384,19.755 -22.847,19.755 -11.463,0 -21.191,-8.41 -22.847,-19.755 l -3.989,-27.323 c -2.036,-13.933 8.766,-26.426 22.846,-26.426 z"
       id="path107" /><path
       style="fill:#c7cfe2"
       d="m 401.298,354.97 0.959,4.626 c 2.891,13.948 -6.071,27.598 -20.018,30.489 -13.948,2.891 -27.598,-6.071 -30.489,-20.018 l -0.959,-4.626 z"
       id="path108" /></g></g></svg>
