<?xml version="1.0" encoding="UTF-8" standalone="no"?>
<!-- Created with Inkscape (http://www.inkscape.org/) -->

<svg
   width="209.04396mm"
   height="198.29286mm"
   viewBox="0 0 209.04396 198.29285"
   version="1.1"
   id="svg1"
   xml:space="preserve"
   inkscape:version="1.3.2 (091e20e, 2023-11-25)"
   sodipodi:docname="flock.svg"
   xmlns:inkscape="http://www.inkscape.org/namespaces/inkscape"
   xmlns:sodipodi="http://sodipodi.sourceforge.net/DTD/sodipodi-0.dtd"
   xmlns="http://www.w3.org/2000/svg"
   xmlns:svg="http://www.w3.org/2000/svg"><sodipodi:namedview
     id="namedview1"
     pagecolor="#ffffff"
     bordercolor="#000000"
     borderopacity="0.25"
     inkscape:showpageshadow="2"
     inkscape:pageopacity="0.0"
     inkscape:pagecheckerboard="0"
     inkscape:deskcolor="#d1d1d1"
     inkscape:document-units="mm"
     inkscape:zoom="0.76546189"
     inkscape:cx="18.289611"
     inkscape:cy="410.20984"
     inkscape:window-width="2320"
     inkscape:window-height="1387"
     inkscape:window-x="244"
     inkscape:window-y="25"
     inkscape:window-maximized="0"
     inkscape:current-layer="layer1" /><defs
     id="defs1" /><g
     inkscape:label="Layer 1"
     inkscape:groupmode="layer"
     id="layer1"
     transform="translate(-52.204828,-18.291894)"><g
       style="fill:none"
       id="g1"
       transform="matrix(0.99926375,0,0,0.99926375,131.74521,106.50078)"
       inkscape:label="blue"><rect
         width="48"
         height="48"
         fill="#ffffff"
         fill-opacity="0.01"
         id="rect1"
         x="0"
         y="0" /><path
         d="m 11,11 8,8 m 18,18 -8,-8"
         stroke="#000000"
         stroke-width="4"
         stroke-linecap="round"
         stroke-linejoin="round"
         id="path1" /><path
         d="m 37,11 -8,8 m -18,18 8,-8"
         stroke="#000000"
         stroke-width="4"
         stroke-linecap="round"
         stroke-linejoin="round"
         id="path2" /><rect
         x="19"
         y="19"
         width="10"
         height="10"
         fill="#2f88ff"
         stroke="#000000"
         stroke-width="4"
         stroke-linecap="round"
         stroke-linejoin="round"
         id="rect2" /><path
         d="m 37,18 c 1.3845,0 2.7379,-0.4105 3.889,-1.1797 1.1511,-0.7692 2.0483,-1.8624 2.5782,-3.1415 0.5298,-1.2791 0.6684,-2.6866 0.3983,-4.04443 C 43.5954,8.2765 42.9287,7.02922 41.9498,6.05026 40.9708,5.07129 39.7235,4.4046 38.3656,4.13451 37.0078,3.86441 35.6003,4.00303 34.3212,4.53285 33.0421,5.06266 31.9489,5.95987 31.1797,7.11101 30.4105,8.26215 30,9.61553 30,11 m 7,19 c 1.3845,0 2.7379,0.4105 3.889,1.1797 1.1511,0.7692 2.0483,1.8624 2.5782,3.1415 0.5298,1.2791 0.6684,2.6866 0.3983,4.0444 -0.2701,1.3579 -0.9368,2.6052 -1.9157,3.5841 -0.979,0.979 -2.2263,1.6457 -3.5842,1.9158 -1.3578,0.2701 -2.7653,0.1315 -4.0444,-0.3983 C 33.0421,42.9373 31.9489,42.0401 31.1797,40.889 30.4105,39.7379 30,38.3845 30,37 M 11,18 C 9.61553,18 8.26216,17.5895 7.11101,16.8203 5.95987,16.0511 5.06266,14.9579 4.53285,13.6788 4.00303,12.3997 3.86441,10.9922 4.13451,9.63437 4.4046,8.2765 5.07129,7.02922 6.05026,6.05026 7.02922,5.07129 8.2765,4.4046 9.63437,4.13451 10.9922,3.86441 12.3997,4.00303 13.6788,4.53285 14.9579,5.06266 16.0511,5.95987 16.8203,7.11101 17.5895,8.26215 18,9.61553 18,11 m -7,19 c -1.38447,0 -2.73784,0.4105 -3.88899,1.1797 -1.15114,0.7692 -2.04835,1.8624 -2.57816,3.1415 -0.52982,1.2791 -0.66844,2.6866 -0.39834,4.0444 0.27009,1.3579 0.93678,2.6052 1.91575,3.5841 0.97896,0.979 2.22624,1.6457 3.58411,1.9158 1.35783,0.2701 2.76533,0.1315 4.04443,-0.3983 1.2791,-0.5299 2.3723,-1.4271 3.1415,-2.5782 C 17.5895,39.7379 18,38.3845 18,37"
         stroke="#000000"
         stroke-width="4"
         stroke-linecap="round"
         stroke-linejoin="round"
         id="path3" /></g><g
       style="fill:none"
       id="g9"
       transform="matrix(0.99926375,0,0,0.99926375,213.28413,69.211309)"
       inkscape:label="red"><rect
         width="48"
         height="48"
         fill="#ffffff"
         fill-opacity="0.01"
         id="rect6"
         x="0"
         y="0" /><path
         d="m 11,11 8,8 m 18,18 -8,-8"
         stroke="#000000"
         stroke-width="4"
         stroke-linecap="round"
         stroke-linejoin="round"
         id="path7" /><path
         d="m 37,11 -8,8 m -18,18 8,-8"
         stroke="#000000"
         stroke-width="4"
         stroke-linecap="round"
         stroke-linejoin="round"
         id="path8" /><rect
         x="19"
         y="19"
         width="10"
         height="10"
         fill="#2f88ff"
         stroke="#000000"
         stroke-width="4"
         stroke-linecap="round"
         stroke-linejoin="round"
         id="rect8"
         style="fill:#ff2f2f;fill-opacity:1" /><path
         d="m 37,18 c 1.3845,0 2.7379,-0.4105 3.889,-1.1797 1.1511,-0.7692 2.0483,-1.8624 2.5782,-3.1415 0.5298,-1.2791 0.6684,-2.6866 0.3983,-4.04443 C 43.5954,8.2765 42.9287,7.02922 41.9498,6.05026 40.9708,5.07129 39.7235,4.4046 38.3656,4.13451 37.0078,3.86441 35.6003,4.00303 34.3212,4.53285 33.0421,5.06266 31.9489,5.95987 31.1797,7.11101 30.4105,8.26215 30,9.61553 30,11 m 7,19 c 1.3845,0 2.7379,0.4105 3.889,1.1797 1.1511,0.7692 2.0483,1.8624 2.5782,3.1415 0.5298,1.2791 0.6684,2.6866 0.3983,4.0444 -0.2701,1.3579 -0.9368,2.6052 -1.9157,3.5841 -0.979,0.979 -2.2263,1.6457 -3.5842,1.9158 -1.3578,0.2701 -2.7653,0.1315 -4.0444,-0.3983 C 33.0421,42.9373 31.9489,42.0401 31.1797,40.889 30.4105,39.7379 30,38.3845 30,37 M 11,18 C 9.61553,18 8.26216,17.5895 7.11101,16.8203 5.95987,16.0511 5.06266,14.9579 4.53285,13.6788 4.00303,12.3997 3.86441,10.9922 4.13451,9.63437 4.4046,8.2765 5.07129,7.02922 6.05026,6.05026 7.02922,5.07129 8.2765,4.4046 9.63437,4.13451 10.9922,3.86441 12.3997,4.00303 13.6788,4.53285 14.9579,5.06266 16.0511,5.95987 16.8203,7.11101 17.5895,8.26215 18,9.61553 18,11 m -7,19 c -1.38447,0 -2.73784,0.4105 -3.88899,1.1797 -1.15114,0.7692 -2.04835,1.8624 -2.57816,3.1415 -0.52982,1.2791 -0.66844,2.6866 -0.39834,4.0444 0.27009,1.3579 0.93678,2.6052 1.91575,3.5841 0.97896,0.979 2.22624,1.6457 3.58411,1.9158 1.35783,0.2701 2.76533,0.1315 4.04443,-0.3983 1.2791,-0.5299 2.3723,-1.4271 3.1415,-2.5782 C 17.5895,39.7379 18,38.3845 18,37"
         stroke="#000000"
         stroke-width="4"
         stroke-linecap="round"
         stroke-linejoin="round"
         id="path9" /></g><g
       style="fill:none"
       id="g61"
       transform="matrix(0.99926375,0,0,0.99926375,69.356978,168.62009)"
       inkscape:label="red"><rect
         width="48"
         height="48"
         fill="#ffffff"
         fill-opacity="0.01"
         id="rect59"
         x="0"
         y="0" /><path
         d="m 11,11 8,8 m 18,18 -8,-8"
         stroke="#000000"
         stroke-width="4"
         stroke-linecap="round"
         stroke-linejoin="round"
         id="path59" /><path
         d="m 37,11 -8,8 m -18,18 8,-8"
         stroke="#000000"
         stroke-width="4"
         stroke-linecap="round"
         stroke-linejoin="round"
         id="path60" /><rect
         x="19"
         y="19"
         width="10"
         height="10"
         fill="#2f88ff"
         stroke="#000000"
         stroke-width="4"
         stroke-linecap="round"
         stroke-linejoin="round"
         id="rect60"
         style="fill:#ff2f2f;fill-opacity:1" /><path
         d="m 37,18 c 1.3845,0 2.7379,-0.4105 3.889,-1.1797 1.1511,-0.7692 2.0483,-1.8624 2.5782,-3.1415 0.5298,-1.2791 0.6684,-2.6866 0.3983,-4.04443 C 43.5954,8.2765 42.9287,7.02922 41.9498,6.05026 40.9708,5.07129 39.7235,4.4046 38.3656,4.13451 37.0078,3.86441 35.6003,4.00303 34.3212,4.53285 33.0421,5.06266 31.9489,5.95987 31.1797,7.11101 30.4105,8.26215 30,9.61553 30,11 m 7,19 c 1.3845,0 2.7379,0.4105 3.889,1.1797 1.1511,0.7692 2.0483,1.8624 2.5782,3.1415 0.5298,1.2791 0.6684,2.6866 0.3983,4.0444 -0.2701,1.3579 -0.9368,2.6052 -1.9157,3.5841 -0.979,0.979 -2.2263,1.6457 -3.5842,1.9158 -1.3578,0.2701 -2.7653,0.1315 -4.0444,-0.3983 C 33.0421,42.9373 31.9489,42.0401 31.1797,40.889 30.4105,39.7379 30,38.3845 30,37 M 11,18 C 9.61553,18 8.26216,17.5895 7.11101,16.8203 5.95987,16.0511 5.06266,14.9579 4.53285,13.6788 4.00303,12.3997 3.86441,10.9922 4.13451,9.63437 4.4046,8.2765 5.07129,7.02922 6.05026,6.05026 7.02922,5.07129 8.2765,4.4046 9.63437,4.13451 10.9922,3.86441 12.3997,4.00303 13.6788,4.53285 14.9579,5.06266 16.0511,5.95987 16.8203,7.11101 17.5895,8.26215 18,9.61553 18,11 m -7,19 c -1.38447,0 -2.73784,0.4105 -3.88899,1.1797 -1.15114,0.7692 -2.04835,1.8624 -2.57816,3.1415 -0.52982,1.2791 -0.66844,2.6866 -0.39834,4.0444 0.27009,1.3579 0.93678,2.6052 1.91575,3.5841 0.97896,0.979 2.22624,1.6457 3.58411,1.9158 1.35783,0.2701 2.76533,0.1315 4.04443,-0.3983 1.2791,-0.5299 2.3723,-1.4271 3.1415,-2.5782 C 17.5895,39.7379 18,38.3845 18,37"
         stroke="#000000"
         stroke-width="4"
         stroke-linecap="round"
         stroke-linejoin="round"
         id="path61" /></g><g
       style="fill:none"
       id="g64"
       transform="matrix(0.99926375,0,0,0.99926375,196.29659,168.62009)"
       inkscape:label="green"><rect
         width="48"
         height="48"
         fill="#ffffff"
         fill-opacity="0.01"
         id="rect61"
         x="0"
         y="0" /><path
         d="m 11,11 8,8 m 18,18 -8,-8"
         stroke="#000000"
         stroke-width="4"
         stroke-linecap="round"
         stroke-linejoin="round"
         id="path62" /><path
         d="m 37,11 -8,8 m -18,18 8,-8"
         stroke="#000000"
         stroke-width="4"
         stroke-linecap="round"
         stroke-linejoin="round"
         id="path63" /><rect
         x="19"
         y="19"
         width="10"
         height="10"
         fill="#2f88ff"
         stroke="#000000"
         stroke-width="4"
         stroke-linecap="round"
         stroke-linejoin="round"
         id="rect63"
         style="fill:#31ff2f;fill-opacity:1" /><path
         d="m 37,18 c 1.3845,0 2.7379,-0.4105 3.889,-1.1797 1.1511,-0.7692 2.0483,-1.8624 2.5782,-3.1415 0.5298,-1.2791 0.6684,-2.6866 0.3983,-4.04443 C 43.5954,8.2765 42.9287,7.02922 41.9498,6.05026 40.9708,5.07129 39.7235,4.4046 38.3656,4.13451 37.0078,3.86441 35.6003,4.00303 34.3212,4.53285 33.0421,5.06266 31.9489,5.95987 31.1797,7.11101 30.4105,8.26215 30,9.61553 30,11 m 7,19 c 1.3845,0 2.7379,0.4105 3.889,1.1797 1.1511,0.7692 2.0483,1.8624 2.5782,3.1415 0.5298,1.2791 0.6684,2.6866 0.3983,4.0444 -0.2701,1.3579 -0.9368,2.6052 -1.9157,3.5841 -0.979,0.979 -2.2263,1.6457 -3.5842,1.9158 -1.3578,0.2701 -2.7653,0.1315 -4.0444,-0.3983 C 33.0421,42.9373 31.9489,42.0401 31.1797,40.889 30.4105,39.7379 30,38.3845 30,37 M 11,18 C 9.61553,18 8.26216,17.5895 7.11101,16.8203 5.95987,16.0511 5.06266,14.9579 4.53285,13.6788 4.00303,12.3997 3.86441,10.9922 4.13451,9.63437 4.4046,8.2765 5.07129,7.02922 6.05026,6.05026 7.02922,5.07129 8.2765,4.4046 9.63437,4.13451 10.9922,3.86441 12.3997,4.00303 13.6788,4.53285 14.9579,5.06266 16.0511,5.95987 16.8203,7.11101 17.5895,8.26215 18,9.61553 18,11 m -7,19 c -1.38447,0 -2.73784,0.4105 -3.88899,1.1797 -1.15114,0.7692 -2.04835,1.8624 -2.57816,3.1415 -0.52982,1.2791 -0.66844,2.6866 -0.39834,4.0444 0.27009,1.3579 0.93678,2.6052 1.91575,3.5841 0.97896,0.979 2.22624,1.6457 3.58411,1.9158 1.35783,0.2701 2.76533,0.1315 4.04443,-0.3983 1.2791,-0.5299 2.3723,-1.4271 3.1415,-2.5782 C 17.5895,39.7379 18,38.3845 18,37"
         stroke="#000000"
         stroke-width="4"
         stroke-linecap="round"
         stroke-linejoin="round"
         id="path64" /></g><g
       style="fill:none"
       id="g67"
       transform="matrix(0.99926375,0,0,0.99926375,52.204828,69.211303)"
       inkscape:label="green"><rect
         width="48"
         height="48"
         fill="#ffffff"
         fill-opacity="0.01"
         id="rect64"
         x="0"
         y="0" /><path
         d="m 11,11 8,8 m 18,18 -8,-8"
         stroke="#000000"
         stroke-width="4"
         stroke-linecap="round"
         stroke-linejoin="round"
         id="path65" /><path
         d="m 37,11 -8,8 m -18,18 8,-8"
         stroke="#000000"
         stroke-width="4"
         stroke-linecap="round"
         stroke-linejoin="round"
         id="path66" /><rect
         x="19"
         y="19"
         width="10"
         height="10"
         fill="#2f88ff"
         stroke="#000000"
         stroke-width="4"
         stroke-linecap="round"
         stroke-linejoin="round"
         id="rect66"
         style="fill:#31ff2f;fill-opacity:1" /><path
         d="m 37,18 c 1.3845,0 2.7379,-0.4105 3.889,-1.1797 1.1511,-0.7692 2.0483,-1.8624 2.5782,-3.1415 0.5298,-1.2791 0.6684,-2.6866 0.3983,-4.04443 C 43.5954,8.2765 42.9287,7.02922 41.9498,6.05026 40.9708,5.07129 39.7235,4.4046 38.3656,4.13451 37.0078,3.86441 35.6003,4.00303 34.3212,4.53285 33.0421,5.06266 31.9489,5.95987 31.1797,7.11101 30.4105,8.26215 30,9.61553 30,11 m 7,19 c 1.3845,0 2.7379,0.4105 3.889,1.1797 1.1511,0.7692 2.0483,1.8624 2.5782,3.1415 0.5298,1.2791 0.6684,2.6866 0.3983,4.0444 -0.2701,1.3579 -0.9368,2.6052 -1.9157,3.5841 -0.979,0.979 -2.2263,1.6457 -3.5842,1.9158 -1.3578,0.2701 -2.7653,0.1315 -4.0444,-0.3983 C 33.0421,42.9373 31.9489,42.0401 31.1797,40.889 30.4105,39.7379 30,38.3845 30,37 M 11,18 C 9.61553,18 8.26216,17.5895 7.11101,16.8203 5.95987,16.0511 5.06266,14.9579 4.53285,13.6788 4.00303,12.3997 3.86441,10.9922 4.13451,9.63437 4.4046,8.2765 5.07129,7.02922 6.05026,6.05026 7.02922,5.07129 8.2765,4.4046 9.63437,4.13451 10.9922,3.86441 12.3997,4.00303 13.6788,4.53285 14.9579,5.06266 16.0511,5.95987 16.8203,7.11101 17.5895,8.26215 18,9.61553 18,11 m -7,19 c -1.38447,0 -2.73784,0.4105 -3.88899,1.1797 -1.15114,0.7692 -2.04835,1.8624 -2.57816,3.1415 -0.52982,1.2791 -0.66844,2.6866 -0.39834,4.0444 0.27009,1.3579 0.93678,2.6052 1.91575,3.5841 0.97896,0.979 2.22624,1.6457 3.58411,1.9158 1.35783,0.2701 2.76533,0.1315 4.04443,-0.3983 1.2791,-0.5299 2.3723,-1.4271 3.1415,-2.5782 C 17.5895,39.7379 18,38.3845 18,37"
         stroke="#000000"
         stroke-width="4"
         stroke-linecap="round"
         stroke-linejoin="round"
         id="path67" /></g><g
       style="fill:none"
       id="g70"
       transform="matrix(0.99926375,0,0,0.99926375,131.7452,18.291894)"
       inkscape:label="blue"><rect
         width="48"
         height="48"
         fill="#ffffff"
         fill-opacity="0.01"
         id="rect67"
         x="0"
         y="0" /><path
         d="m 11,11 8,8 m 18,18 -8,-8"
         stroke="#000000"
         stroke-width="4"
         stroke-linecap="round"
         stroke-linejoin="round"
         id="path68" /><path
         d="m 37,11 -8,8 m -18,18 8,-8"
         stroke="#000000"
         stroke-width="4"
         stroke-linecap="round"
         stroke-linejoin="round"
         id="path69" /><rect
         x="19"
         y="19"
         width="10"
         height="10"
         fill="#2f88ff"
         stroke="#000000"
         stroke-width="4"
         stroke-linecap="round"
         stroke-linejoin="round"
         id="rect69" /><path
         d="m 37,18 c 1.3845,0 2.7379,-0.4105 3.889,-1.1797 1.1511,-0.7692 2.0483,-1.8624 2.5782,-3.1415 0.5298,-1.2791 0.6684,-2.6866 0.3983,-4.04443 C 43.5954,8.2765 42.9287,7.02922 41.9498,6.05026 40.9708,5.07129 39.7235,4.4046 38.3656,4.13451 37.0078,3.86441 35.6003,4.00303 34.3212,4.53285 33.0421,5.06266 31.9489,5.95987 31.1797,7.11101 30.4105,8.26215 30,9.61553 30,11 m 7,19 c 1.3845,0 2.7379,0.4105 3.889,1.1797 1.1511,0.7692 2.0483,1.8624 2.5782,3.1415 0.5298,1.2791 0.6684,2.6866 0.3983,4.0444 -0.2701,1.3579 -0.9368,2.6052 -1.9157,3.5841 -0.979,0.979 -2.2263,1.6457 -3.5842,1.9158 -1.3578,0.2701 -2.7653,0.1315 -4.0444,-0.3983 C 33.0421,42.9373 31.9489,42.0401 31.1797,40.889 30.4105,39.7379 30,38.3845 30,37 M 11,18 C 9.61553,18 8.26216,17.5895 7.11101,16.8203 5.95987,16.0511 5.06266,14.9579 4.53285,13.6788 4.00303,12.3997 3.86441,10.9922 4.13451,9.63437 4.4046,8.2765 5.07129,7.02922 6.05026,6.05026 7.02922,5.07129 8.2765,4.4046 9.63437,4.13451 10.9922,3.86441 12.3997,4.00303 13.6788,4.53285 14.9579,5.06266 16.0511,5.95987 16.8203,7.11101 17.5895,8.26215 18,9.61553 18,11 m -7,19 c -1.38447,0 -2.73784,0.4105 -3.88899,1.1797 -1.15114,0.7692 -2.04835,1.8624 -2.57816,3.1415 -0.52982,1.2791 -0.66844,2.6866 -0.39834,4.0444 0.27009,1.3579 0.93678,2.6052 1.91575,3.5841 0.97896,0.979 2.22624,1.6457 3.58411,1.9158 1.35783,0.2701 2.76533,0.1315 4.04443,-0.3983 1.2791,-0.5299 2.3723,-1.4271 3.1415,-2.5782 C 17.5895,39.7379 18,38.3845 18,37"
         stroke="#000000"
         stroke-width="4"
         stroke-linecap="round"
         stroke-linejoin="round"
         id="path70" /></g><path
       style="fill:#ff2f2f;fill-opacity:1;fill-rule:evenodd;stroke:#3c9b9f;stroke-width:3;stroke-linejoin:round;stroke-dasharray:3, 3;stroke-dashoffset:0;stroke-opacity:1"
       d="M 155.72754,54.434893 V 118.21388"
       id="path71"
       sodipodi:nodetypes="cc" /><path
       style="fill:#ff2f2f;fill-opacity:1;fill-rule:evenodd;stroke:#3c9b9f;stroke-width:3;stroke-linejoin:round;stroke-dasharray:3, 3;stroke-dashoffset:0;stroke-opacity:1"
       d="M 96.650181,92.423775 131.74521,112.5257"
       id="path72"
       sodipodi:nodetypes="cc" /><path
       style="fill:#ff2f2f;fill-opacity:1;fill-rule:evenodd;stroke:#3c9b9f;stroke-width:3;stroke-linejoin:round;stroke-dasharray:3, 3;stroke-dashoffset:0;stroke-opacity:1"
       d="m 180.74763,148.126 35.09505,20.10193"
       id="path73"
       sodipodi:nodetypes="cc" /><path
       style="fill:#ff2f2f;fill-opacity:1;fill-rule:evenodd;stroke:#3c9b9f;stroke-width:3;stroke-linejoin:round;stroke-dasharray:3, 3;stroke-dashoffset:0;stroke-opacity:1"
       d="M 98.00609,168.62009 132.6401,147.73383"
       id="path75"
       sodipodi:nodetypes="cc" /><path
       style="fill:#ff2f2f;fill-opacity:1;fill-rule:evenodd;stroke:#3c9b9f;stroke-width:3;stroke-linejoin:round;stroke-dasharray:3, 3;stroke-dashoffset:0;stroke-opacity:1"
       d="M 214.8049,92.423775 179.70989,112.5257"
       id="path76"
       sodipodi:nodetypes="cc" /></g></svg>
