<?xml version="1.0" encoding="UTF-8" standalone="no"?>
<!-- Uploaded to: SVG Repo, www.svgrepo.com, Generator: SVG Repo Mixer Tools -->

<svg
   version="1.1"
   id="Layer_1"
   viewBox="0 0 300.616 362.09047"
   xml:space="preserve"
   sodipodi:docname="organization-order-svgrepo-com.svg"
   inkscape:version="1.3.2 (091e20e, 2023-11-25)"
   width="300.616"
   height="362.09045"
   xmlns:inkscape="http://www.inkscape.org/namespaces/inkscape"
   xmlns:sodipodi="http://sodipodi.sourceforge.net/DTD/sodipodi-0.dtd"
   xmlns="http://www.w3.org/2000/svg"
   xmlns:svg="http://www.w3.org/2000/svg"><defs
   id="defs16" /><sodipodi:namedview
   id="namedview16"
   pagecolor="#ffffff"
   bordercolor="#000000"
   borderopacity="0.25"
   inkscape:showpageshadow="2"
   inkscape:pageopacity="0.0"
   inkscape:pagecheckerboard="0"
   inkscape:deskcolor="#d1d1d1"
   inkscape:zoom="0.875"
   inkscape:cx="145.14286"
   inkscape:cy="193.14286"
   inkscape:window-width="1264"
   inkscape:window-height="919"
   inkscape:window-x="244"
   inkscape:window-y="25"
   inkscape:window-maximized="0"
   inkscape:current-layer="Layer_1" />








<g
   id="g1"
   transform="scale(1.0379813)"><g
     id="g3"
     transform="translate(-111.192,-62.758999)">
	<path
   style="fill:#324a5e"
   d="M 350.02,304.721 H 161.98 c -15.408,0 -27.946,12.536 -27.946,27.946 v 25.495 h 15.515 v -25.495 c 0,-6.854 5.575,-12.431 12.431,-12.431 h 86.263 v 65.814 h 15.515 v -65.814 h 86.263 c 6.856,0 12.431,5.577 12.431,12.431 v 25.495 h 15.515 v -25.495 c -10e-4,-15.41 -12.537,-27.946 -27.947,-27.946 z"
   id="path2" />
	<path
   style="fill:#324a5e"
   d="M 350.02,155.453 H 263.757 V 96.809 h -15.515 v 58.644 H 161.98 c -15.408,0 -27.946,12.536 -27.946,27.946 v 25.495 h 15.515 v -25.495 c 0,-6.854 5.575,-12.431 12.431,-12.431 h 33.673 v 123.849 h 15.515 V 170.968 h 37.074 v 37.926 h 15.515 v -37.926 h 37.074 v 123.849 h 15.515 V 170.968 h 33.673 c 6.856,0 12.431,5.577 12.431,12.431 v 25.495 h 15.515 v -25.495 c 0.001,-15.41 -12.535,-27.946 -27.945,-27.946 z"
   id="path3" />
</g><g
     id="g5"
     transform="translate(-111.192,-62.758999)">
	<path
   style="fill:#2b3b4e"
   d="m 350.02,304.721 h -95.168 v 81.329 h 8.906 v -65.814 h 86.263 c 6.856,0 12.431,5.577 12.431,12.431 v 25.495 h 15.515 v -25.495 c -10e-4,-15.41 -12.537,-27.946 -27.947,-27.946 z"
   id="path4" />
	<path
   style="fill:#2b3b4e"
   d="M 350.02,155.453 H 263.757 V 96.809 h -8.906 v 112.085 h 8.906 v -37.926 h 37.074 v 123.849 h 15.515 V 170.968 h 33.673 c 6.856,0 12.431,5.577 12.431,12.431 v 25.495 h 15.515 v -25.495 c 0.001,-15.41 -12.535,-27.946 -27.945,-27.946 z"
   id="path5" />
</g><rect
     x="0"
     y="287.642"
     style="fill:#fc6f58"
     width="61.199001"
     height="61.199001"
     id="rect5" /><rect
     x="228.41701"
     y="287.642"
     style="fill:#f1543f"
     width="61.199001"
     height="61.199001"
     id="rect6" /><g
     id="g10"
     transform="translate(-111.192,-62.758999)">
	<rect
   x="111.192"
   y="201.12801"
   style="fill:#fc6f58"
   width="61.199001"
   height="61.199001"
   id="rect7" />
	<rect
   x="225.401"
   y="201.12801"
   style="fill:#fc6f58"
   width="61.199001"
   height="61.199001"
   id="rect8" />
	<rect
   x="225.401"
   y="350.401"
   style="fill:#fc6f58"
   width="61.199001"
   height="61.199001"
   id="rect9" />
	<rect
   x="225.401"
   y="62.758999"
   style="fill:#fc6f58"
   width="61.199001"
   height="61.199001"
   id="rect10" />
</g><g
     id="g15"
     transform="translate(-111.192,-62.758999)">
	<rect
   x="254.845"
   y="201.12801"
   style="fill:#f1543f"
   width="31.747"
   height="61.199001"
   id="rect11" />
	<rect
   x="254.845"
   y="350.401"
   style="fill:#f1543f"
   width="31.747"
   height="61.199001"
   id="rect12" />
	<rect
   x="254.845"
   y="62.758999"
   style="fill:#f1543f"
   width="31.747"
   height="61.199001"
   id="rect13" />
	<rect
   x="339.60901"
   y="201.12801"
   style="fill:#f1543f"
   width="61.199001"
   height="61.199001"
   id="rect14" />
	<rect
   x="281.44501"
   y="273.11801"
   style="fill:#f1543f"
   width="61.199001"
   height="61.199001"
   id="rect15" />
</g><rect
     x="58.164001"
     y="210.35901"
     style="fill:#fc6f58"
     width="61.199001"
     height="61.199001"
     id="rect16" /></g>
</svg>
