<?xml version="1.0" encoding="UTF-8" standalone="no"?>
<!-- Created with Inkscape (http://www.inkscape.org/) -->

<svg
   width="210mm"
   height="297mm"
   viewBox="0 0 210 297"
   version="1.1"
   id="svg1"
   xml:space="preserve"
   xmlns:xlink="http://www.w3.org/1999/xlink"
   xmlns="http://www.w3.org/2000/svg"
   xmlns:svg="http://www.w3.org/2000/svg"><defs
     id="defs1"><marker
       style="overflow:visible"
       id="RoundedArrow"
       refX="0"
       refY="0"
       orient="auto-start-reverse"
       markerWidth="0.501"
       markerHeight="0.501"
       viewBox="0 0 1 1"
       preserveAspectRatio="xMidYMid"
       markerUnits="strokeWidth"><path
         transform="scale(0.7)"
         d="m -0.21114562,-4.1055728 6.42229122,3.21114561 a 1,1 90 0 1 0,1.78885438 L -0.21114562,4.1055728 A 1.236068,1.236068 31.717474 0 1 -2,3 v -6 a 1.236068,1.236068 148.28253 0 1 1.78885438,-1.1055728 z"
         style="fill:context-stroke;fill-rule:evenodd;stroke:none"
         id="path222" /></marker><marker
       style="overflow:visible"
       id="marker174"
       refX="0"
       refY="0"
       orient="auto-start-reverse"
       markerWidth="0.5"
       markerHeight="5"
       viewBox="0 0 1 1"
       preserveAspectRatio="xMidYMid"
       markerUnits="strokeWidth"><path
         transform="scale(0.7)"
         d="m -0.21114562,-4.1055728 6.42229122,3.21114561 a 1,1 90 0 1 0,1.78885438 L -0.21114562,4.1055728 A 1.236068,1.236068 31.717474 0 1 -2,3 v -6 a 1.236068,1.236068 148.28253 0 1 1.78885438,-1.1055728 z"
         style="fill:context-stroke;fill-rule:evenodd;stroke:none"
         id="path174" /></marker><linearGradient
       id="linearGradient53"><stop
         style="stop-color:#2b6117;stop-opacity:1;"
         offset="0"
         id="stop53" /><stop
         style="stop-color:#70ff6a;stop-opacity:1;"
         offset="1"
         id="stop54" /></linearGradient><linearGradient
       id="linearGradient51"><stop
         style="stop-color:#e24700;stop-opacity:1;"
         offset="0"
         id="stop52" /><stop
         style="stop-color:#ff9360;stop-opacity:1;"
         offset="1"
         id="stop51" /></linearGradient><linearGradient
       id="linearGradient22"><stop
         style="stop-color:#00858a;stop-opacity:1;"
         offset="0"
         id="stop22" /><stop
         style="stop-color:#60f9ff;stop-opacity:1;"
         offset="1"
         id="stop23" /></linearGradient><linearGradient
       xlink:href="#linearGradient22"
       id="linearGradient31"
       x1="45.853241"
       y1="84.220802"
       x2="65.883697"
       y2="84.220802"
       gradientUnits="userSpaceOnUse"
       gradientTransform="matrix(1.1390899,0,0,1.1390899,-10.384141,-13.743923)" /><linearGradient
       xlink:href="#linearGradient22"
       id="linearGradient46"
       gradientUnits="userSpaceOnUse"
       x1="45.853241"
       y1="84.220802"
       x2="65.883697"
       y2="84.220802"
       gradientTransform="matrix(1.1390899,0,0,1.1390899,48.334253,-13.743934)" /><linearGradient
       xlink:href="#linearGradient22"
       id="linearGradient47"
       gradientUnits="userSpaceOnUse"
       x1="45.853241"
       y1="84.220802"
       x2="65.883697"
       y2="84.220802"
       gradientTransform="matrix(1.1390899,0,0,1.1390899,107.05274,-13.743928)" /><linearGradient
       xlink:href="#linearGradient22"
       id="linearGradient48"
       gradientUnits="userSpaceOnUse"
       x1="45.853241"
       y1="84.220802"
       x2="65.883697"
       y2="84.220802"
       gradientTransform="matrix(1.1390899,0,0,1.1390899,12.356874,47.987606)" /><linearGradient
       xlink:href="#linearGradient22"
       id="linearGradient49"
       gradientUnits="userSpaceOnUse"
       x1="45.853241"
       y1="84.220802"
       x2="65.883697"
       y2="84.220802"
       gradientTransform="matrix(1.1390899,0,0,1.1390899,60.698369,47.987607)" /><linearGradient
       xlink:href="#linearGradient22"
       id="linearGradient50"
       gradientUnits="userSpaceOnUse"
       x1="45.853241"
       y1="84.220802"
       x2="65.883697"
       y2="84.220802"
       gradientTransform="matrix(1.1390899,0,0,1.1390899,101.31222,47.987603)" /><linearGradient
       xlink:href="#linearGradient51"
       id="linearGradient52"
       x1="95.134193"
       y1="29.306622"
       x2="115.16465"
       y2="29.306622"
       gradientUnits="userSpaceOnUse"
       gradientTransform="matrix(1.1390899,0,0,1.1390899,-7.8012065,-11.11201)" /><linearGradient
       xlink:href="#linearGradient53"
       id="linearGradient54"
       x1="184.12189"
       y1="136.10399"
       x2="204.15234"
       y2="136.10399"
       gradientUnits="userSpaceOnUse"
       gradientTransform="matrix(1.1390899,0,0,1.1390899,-15.574391,-11.11201)" /><linearGradient
       xlink:href="#linearGradient53"
       id="linearGradient55"
       gradientUnits="userSpaceOnUse"
       x1="184.12189"
       y1="136.10399"
       x2="204.15234"
       y2="136.10399"
       gradientTransform="matrix(1.1390899,0,0,1.1390899,-30.666354,49.713894)" /><linearGradient
       xlink:href="#linearGradient53"
       id="linearGradient56"
       gradientUnits="userSpaceOnUse"
       x1="184.12189"
       y1="136.10399"
       x2="204.15234"
       y2="136.10399"
       gradientTransform="matrix(1.1390899,0,0,1.1390899,-74.751121,49.713897)" /><linearGradient
       xlink:href="#linearGradient53"
       id="linearGradient57"
       gradientUnits="userSpaceOnUse"
       x1="184.12189"
       y1="136.10399"
       x2="204.15234"
       y2="136.10399"
       gradientTransform="matrix(1.1390899,0,0,1.1390899,-121.60209,49.713898)" /><linearGradient
       xlink:href="#linearGradient53"
       id="linearGradient58"
       gradientUnits="userSpaceOnUse"
       x1="184.12189"
       y1="136.10399"
       x2="204.15234"
       y2="136.10399"
       gradientTransform="matrix(1.1390899,0,0,1.1390899,-169.38676,49.713891)" /><linearGradient
       xlink:href="#linearGradient53"
       id="linearGradient59"
       gradientUnits="userSpaceOnUse"
       x1="184.12189"
       y1="136.10399"
       x2="204.15234"
       y2="136.10399"
       gradientTransform="matrix(1.1390899,0,0,1.1390899,-202.75791,-11.11201)" /></defs><g
     id="layer1"
     transform="matrix(1,0,0,-1,-6.9734917,296.26355)"
     style="display:inline"><path
       style="fill:#60f9ff;fill-opacity:1;fill-rule:evenodd;stroke:#563813;stroke-width:2.3545;stroke-linejoin:round;stroke-dasharray:none;stroke-opacity:1"
       d="M 111.9735,22.270869 53.255071,81.862228"
       id="path59" /><path
       style="fill:#60f9ff;fill-opacity:1;fill-rule:evenodd;stroke:#563813;stroke-width:2.3545;stroke-linejoin:round;stroke-dasharray:none;stroke-opacity:1"
       d="m 111.9735,22.270869 58.71844,60.825905"
       id="path60" /><path
       style="fill:#60f9ff;fill-opacity:1;fill-rule:evenodd;stroke:#563813;stroke-width:2.855;stroke-linejoin:round;stroke-dasharray:none;stroke-opacity:1"
       d="M 111.9735,22.270869 V 83.096774"
       id="path61" /><path
       style="fill:#60f9ff;fill-opacity:1;fill-rule:evenodd;stroke:#563813;stroke-width:2.3545;stroke-linejoin:round;stroke-dasharray:none;stroke-opacity:1"
       d="M 111.9735,83.096774 75.996086,143.92268"
       id="path64" /><path
       style="fill:#60f9ff;fill-opacity:1;fill-rule:evenodd;stroke:#563813;stroke-width:2.3545;stroke-linejoin:round;stroke-dasharray:none;stroke-opacity:1"
       d="m 111.9735,83.096774 12.36408,60.825906"
       id="path65" /><path
       style="fill:#60f9ff;fill-opacity:1;fill-rule:evenodd;stroke:#563813;stroke-width:2.3545;stroke-linejoin:round;stroke-dasharray:none;stroke-opacity:1"
       d="m 170.69194,83.096774 -5.74053,60.825906"
       id="path66" /><path
       style="fill:#60f9ff;fill-opacity:1;fill-rule:evenodd;stroke:#563813;stroke-width:2.3545;stroke-linejoin:round;stroke-dasharray:none;stroke-opacity:1"
       d="m 170.69194,83.096774 34.87332,60.825906"
       id="path67" /><path
       style="fill:#60f9ff;fill-opacity:1;fill-rule:evenodd;stroke:#563813;stroke-width:2.3545;stroke-linejoin:round;stroke-dasharray:none;stroke-opacity:1"
       d="M 53.255071,81.862228 18.381731,143.92268"
       id="path68" /><path
       style="fill:#60f9ff;fill-opacity:1;fill-rule:evenodd;stroke:#563813;stroke-width:2.3545;stroke-linejoin:round;stroke-dasharray:none;stroke-opacity:1"
       d="M 51.752884,193.60086 Z"
       id="path69" /><path
       style="fill:#60f9ff;fill-opacity:1;fill-rule:evenodd;stroke:#563813;stroke-width:2.3545;stroke-linejoin:round;stroke-dasharray:none;stroke-opacity:1"
       d="M 75.996086,143.92268 51.752885,204.74857"
       id="path70" /><path
       style="fill:#60f9ff;fill-opacity:1;fill-rule:evenodd;stroke:#563813;stroke-width:2.3545;stroke-linejoin:round;stroke-dasharray:none;stroke-opacity:1"
       d="M 124.33758,143.92268 99.537538,204.74857"
       id="path71" /><path
       style="fill:#60f9ff;fill-opacity:1;fill-rule:evenodd;stroke:#563813;stroke-width:2.3545;stroke-linejoin:round;stroke-dasharray:none;stroke-opacity:1"
       d="m 124.33758,143.92268 22.05094,60.82589"
       id="path72" /><path
       style="fill:#60f9ff;fill-opacity:1;fill-rule:evenodd;stroke:#563813;stroke-width:2.3545;stroke-linejoin:round;stroke-dasharray:none;stroke-opacity:1"
       d="m 164.95141,143.92268 25.52187,60.82589"
       id="path73" /><circle
       style="fill:url(#linearGradient52);fill-rule:evenodd;stroke:#000000;stroke-width:0.521071;stroke-linejoin:round;stroke-dasharray:none;stroke-opacity:1"
       id="path1"
       cx="111.9735"
       cy="22.270868"
       r="11.14771" /><circle
       style="fill:url(#linearGradient31);fill-rule:evenodd;stroke:#000000;stroke-width:0.521071;stroke-linejoin:round;stroke-dasharray:none;stroke-opacity:1"
       id="circle8"
       cx="53.255074"
       cy="82.191147"
       r="11.14771" /><circle
       style="fill:url(#linearGradient54);fill-rule:evenodd;stroke:#000000;stroke-width:0.521071;stroke-linejoin:round;stroke-dasharray:none;stroke-opacity:1"
       id="circle12"
       cx="205.56525"
       cy="143.92267"
       r="11.14771" /><circle
       style="fill:url(#linearGradient46);fill-rule:evenodd;stroke:#000000;stroke-width:0.521071;stroke-linejoin:round;stroke-dasharray:none;stroke-opacity:1"
       id="circle8-8"
       cx="111.9735"
       cy="82.191147"
       r="11.14771" /><circle
       style="fill:url(#linearGradient47);fill-rule:evenodd;stroke:#000000;stroke-width:0.521071;stroke-linejoin:round;stroke-dasharray:none;stroke-opacity:1"
       id="circle8-3"
       cx="170.69193"
       cy="82.191139"
       r="11.14771" /><circle
       style="fill:url(#linearGradient48);fill-rule:evenodd;stroke:#000000;stroke-width:0.521071;stroke-linejoin:round;stroke-dasharray:none;stroke-opacity:1"
       id="circle8-7"
       cx="75.996086"
       cy="143.92267"
       r="11.14771" /><circle
       style="fill:url(#linearGradient49);fill-rule:evenodd;stroke:#000000;stroke-width:0.521071;stroke-linejoin:round;stroke-dasharray:none;stroke-opacity:1"
       id="circle8-5"
       cx="124.33759"
       cy="143.92267"
       r="11.14771" /><circle
       style="fill:url(#linearGradient50);fill-rule:evenodd;stroke:#000000;stroke-width:0.521071;stroke-linejoin:round;stroke-dasharray:none;stroke-opacity:1"
       id="circle8-1"
       cx="164.9514"
       cy="143.92267"
       r="11.14771" /><circle
       style="fill:url(#linearGradient55);fill-rule:evenodd;stroke:#000000;stroke-width:0.521071;stroke-linejoin:round;stroke-dasharray:none;stroke-opacity:1"
       id="circle12-5"
       cx="190.47325"
       cy="204.74857"
       r="11.14771" /><circle
       style="fill:url(#linearGradient56);fill-rule:evenodd;stroke:#000000;stroke-width:0.521071;stroke-linejoin:round;stroke-dasharray:none;stroke-opacity:1"
       id="circle12-0"
       cx="146.38852"
       cy="204.74857"
       r="11.14771" /><circle
       style="fill:url(#linearGradient57);fill-rule:evenodd;stroke:#000000;stroke-width:0.521071;stroke-linejoin:round;stroke-dasharray:none;stroke-opacity:1"
       id="circle12-6"
       cx="99.537544"
       cy="204.74857"
       r="11.14771" /><circle
       style="fill:url(#linearGradient58);fill-rule:evenodd;stroke:#000000;stroke-width:0.521071;stroke-linejoin:round;stroke-dasharray:none;stroke-opacity:1"
       id="circle12-52"
       cx="51.752888"
       cy="204.74857"
       r="11.14771" /><circle
       style="fill:url(#linearGradient59);fill-rule:evenodd;stroke:#000000;stroke-width:0.521071;stroke-linejoin:round;stroke-dasharray:none;stroke-opacity:1"
       id="circle12-00"
       cx="18.381731"
       cy="143.92267"
       r="11.14771" /><g
       id="g10"
       transform="matrix(0.96054811,0,0,-0.96054811,80.353687,283.8635)"
       style="display:inline">
	
	
<g
   id="g26"
   transform="matrix(0.87050709,0,0,0.87050709,5.0622754,-11.256639)">
	<path
   fill-rule="evenodd"
   clip-rule="evenodd"
   fill="#394240"
   d="m 32,14.002 c -9.941,0 -18,8.059 -18,18 0,9.941 8.059,18 18,18 9.941,0 18,-8.059 18,-18 0,-9.941 -8.059,-18 -18,-18 z m 0,34 c -8.837,0 -16,-7.164 -16,-16 0,-8.836 7.163,-16 16,-16 8.837,0 16,7.164 16,16 0,8.836 -7.163,16 -16,16 z"
   id="path1-8" />
	<path
   fill-rule="evenodd"
   clip-rule="evenodd"
   fill="#394240"
   d="M 63,31 H 53 c -0.553,0 -1,0.447 -1,1 0,0.553 0.447,1 1,1 h 10 c 0.553,0 1,-0.447 1,-1 0,-0.553 -0.447,-1 -1,-1 z"
   id="path2" />
	<path
   fill-rule="evenodd"
   clip-rule="evenodd"
   fill="#394240"
   d="m 11.457,36.469 -3.863,1.035 c -0.534,0.145 -0.851,0.693 -0.707,1.227 0.143,0.533 0.69,0.85 1.225,0.705 l 3.863,-1.035 c 0.533,-0.143 0.85,-0.689 0.707,-1.225 -0.143,-0.533 -0.692,-0.85 -1.225,-0.707 z"
   id="path3" />
	<path
   fill-rule="evenodd"
   clip-rule="evenodd"
   fill="#394240"
   d="m 49.32,22 c 0.277,0.479 0.888,0.643 1.367,0.365 l 8.66,-5 C 59.826,17.09 59.99,16.478 59.712,16 59.437,15.521 58.825,15.357 58.347,15.635 l -8.66,5 C 49.208,20.912 49.045,21.521 49.32,22 Z"
   id="path4" />
	<path
   fill-rule="evenodd"
   clip-rule="evenodd"
   fill="#394240"
   d="m 17.858,46.143 c -0.39,-0.391 -1.023,-0.389 -1.414,0 l -2.828,2.828 c -0.391,0.391 -0.39,1.025 0.001,1.414 0.39,0.391 1.022,0.391 1.413,0 l 2.828,-2.828 c 0.391,-0.389 0.391,-1.024 0,-1.414 z"
   id="path5" />
	<path
   fill-rule="evenodd"
   clip-rule="evenodd"
   fill="#394240"
   d="m 42,14.68 c 0.479,0.275 1.09,0.113 1.367,-0.367 l 5,-8.66 C 48.644,5.174 48.48,4.562 48,4.287 47.522,4.01 46.912,4.174 46.635,4.652 l -4.999,8.662 C 41.358,13.793 41.522,14.402 42,14.68 Z"
   id="path6" />
	<path
   fill-rule="evenodd"
   clip-rule="evenodd"
   fill="#394240"
   d="m 26.824,51.318 c -0.532,-0.143 -1.08,0.176 -1.225,0.707 l -1.035,3.863 c -0.143,0.535 0.176,1.082 0.709,1.225 0.533,0.145 1.08,-0.172 1.223,-0.707 l 1.035,-3.863 c 0.145,-0.531 -0.172,-1.08 -0.707,-1.225 z"
   id="path7" />
	<path
   fill-rule="evenodd"
   clip-rule="evenodd"
   fill="#394240"
   d="m 32,12 c 0.554,0 1.001,-0.447 1.002,-1 V 1 C 33.002,0.447 32.555,0 32,0 31.449,0 31.002,0.447 31.001,1 l 10e-4,10 c 0,0.553 0.447,1 0.998,1 z"
   id="path8" />
	<path
   fill-rule="evenodd"
   clip-rule="evenodd"
   fill="#394240"
   d="m 38.402,52.025 c -0.141,-0.533 -0.689,-0.85 -1.225,-0.707 -0.533,0.143 -0.848,0.691 -0.707,1.225 l 1.035,3.863 c 0.144,0.535 0.693,0.85 1.227,0.707 0.534,-0.143 0.849,-0.689 0.705,-1.225 z"
   id="path9" />
	<path
   fill-rule="evenodd"
   clip-rule="evenodd"
   fill="#394240"
   d="m 20.637,14.312 c 0.275,0.479 0.887,0.643 1.363,0.367 0.48,-0.277 0.645,-0.887 0.368,-1.367 l -5,-8.66 C 17.092,4.174 16.48,4.01 16,4.287 15.523,4.562 15.359,5.174 15.635,5.652 Z"
   id="path10" />
	<path
   fill-rule="evenodd"
   clip-rule="evenodd"
   fill="#394240"
   d="m 47.558,46.141 c -0.388,-0.389 -1.022,-0.389 -1.414,0 -0.391,0.391 -0.388,1.025 0,1.414 l 2.828,2.828 c 0.392,0.393 1.025,0.389 1.415,0 0.391,-0.391 0.391,-1.021 -10e-4,-1.414 z"
   id="path11" />
	<path
   fill-rule="evenodd"
   clip-rule="evenodd"
   fill="#394240"
   d="m 4.654,17.365 8.662,4.998 c 0.477,0.277 1.088,0.113 1.363,-0.363 0.277,-0.48 0.115,-1.09 -0.364,-1.367 l -8.661,-5 C 5.176,15.355 4.564,15.52 4.287,16 4.013,16.477 4.176,17.088 4.654,17.365 Z"
   id="path12" />
	<path
   fill-rule="evenodd"
   clip-rule="evenodd"
   fill="#394240"
   d="m 52.027,38.4 3.863,1.035 c 0.535,0.145 1.082,-0.176 1.225,-0.709 0.144,-0.533 -0.172,-1.08 -0.707,-1.223 l -3.863,-1.035 c -0.531,-0.145 -1.081,0.172 -1.225,0.707 -0.144,0.534 0.176,1.081 0.707,1.225 z"
   id="path13" />
	<path
   fill-rule="evenodd"
   clip-rule="evenodd"
   fill="#394240"
   d="m 12,32 c 10e-4,-0.555 -0.445,-1 -0.998,-1.002 L 1,31 c -0.552,0 -1,0.445 -1,1 0.001,0.551 0.448,1 1.001,1 l 10.001,-0.002 c 0.551,0 0.999,-0.447 0.998,-0.998 z"
   id="path14" />
	<path
   fill-rule="evenodd"
   clip-rule="evenodd"
   fill="#394240"
   d="m 52.545,27.529 3.863,-1.035 c 0.535,-0.143 0.85,-0.693 0.706,-1.227 -0.142,-0.531 -0.688,-0.848 -1.224,-0.705 l -3.863,1.035 c -0.533,0.141 -0.85,0.691 -0.707,1.225 0.141,0.533 0.692,0.848 1.225,0.707 z"
   id="path15" />
	<circle
   fill-rule="evenodd"
   clip-rule="evenodd"
   fill="#f9ebb2"
   cx="32"
   cy="32"
   r="16"
   id="circle15" />
	<path
   fill-rule="evenodd"
   clip-rule="evenodd"
   fill="#394240"
   d="M 14.68,42 C 14.405,41.52 13.794,41.355 13.315,41.631 L 4.654,46.633 C 4.176,46.91 4.01,47.52 4.287,48 c 0.277,0.477 0.889,0.641 1.367,0.365 l 8.66,-5.002 C 14.791,43.088 14.957,42.479 14.68,42 Z"
   id="path16" />
	<path
   fill-rule="evenodd"
   clip-rule="evenodd"
   fill="#394240"
   d="m 46.144,17.855 c 0.389,0.393 1.022,0.389 1.414,0 l 2.828,-2.828 c 0.392,-0.391 0.39,-1.023 -0.002,-1.414 -0.388,-0.391 -1.021,-0.391 -1.412,0 l -2.828,2.828 c -0.392,0.389 -0.39,1.024 0,1.414 z"
   id="path17" />
	<path
   fill-rule="evenodd"
   clip-rule="evenodd"
   fill="#394240"
   d="m 22,49.32 c -0.479,-0.277 -1.088,-0.113 -1.365,0.363 l -5,8.664 c -0.275,0.477 -0.115,1.088 0.365,1.365 0.479,0.273 1.09,0.109 1.367,-0.367 l 4.998,-8.662 C 22.641,50.207 22.48,49.596 22,49.32 Z"
   id="path18" />
	<path
   fill-rule="evenodd"
   clip-rule="evenodd"
   fill="#394240"
   d="m 37.178,12.68 c 0.531,0.145 1.078,-0.176 1.225,-0.707 L 39.438,8.11 C 39.581,7.575 39.262,7.026 38.729,6.885 38.198,6.74 37.649,7.057 37.506,7.592 l -1.035,3.863 c -0.147,0.531 0.174,1.08 0.707,1.225 z"
   id="path19" />
	<path
   fill-rule="evenodd"
   clip-rule="evenodd"
   fill="#394240"
   d="m 32,52 c -0.553,-0.002 -0.998,0.445 -1,0.998 l 0.002,10.004 c 0,0.549 0.443,0.998 0.998,0.998 0.553,0 1,-0.449 1.001,-1 L 32.998,52.998 C 32.998,52.447 32.555,52 32,52 Z"
   id="path20" />
	<path
   fill-rule="evenodd"
   clip-rule="evenodd"
   fill="#394240"
   d="m 25.6,11.973 c 0.139,0.533 0.691,0.85 1.225,0.707 0.532,-0.141 0.846,-0.691 0.707,-1.225 L 26.497,7.592 C 26.352,7.057 25.804,6.74 25.27,6.885 24.739,7.028 24.42,7.574 24.565,8.11 Z"
   id="path21" />
	<path
   fill-rule="evenodd"
   clip-rule="evenodd"
   fill="#394240"
   d="M 43.363,49.686 C 43.088,49.209 42.48,49.043 42,49.32 c -0.479,0.275 -0.641,0.885 -0.367,1.365 l 5.004,8.66 c 0.275,0.479 0.883,0.645 1.363,0.367 0.479,-0.277 0.642,-0.889 0.367,-1.367 z"
   id="path22" />
	<path
   fill-rule="evenodd"
   clip-rule="evenodd"
   fill="#394240"
   d="m 16.443,17.855 c 0.387,0.395 1.023,0.391 1.414,0 0.391,-0.387 0.387,-1.02 0,-1.414 l -2.828,-2.828 c -0.393,-0.391 -1.025,-0.389 -1.415,0.002 -0.39,0.389 -0.392,1.021 10e-4,1.412 z"
   id="path23" />
	<path
   fill-rule="evenodd"
   clip-rule="evenodd"
   fill="#394240"
   d="m 59.348,46.633 -8.663,-4.998 c -0.478,-0.275 -1.087,-0.115 -1.363,0.367 -0.278,0.477 -0.112,1.086 0.364,1.363 l 8.664,5 c 0.477,0.275 1.086,0.115 1.363,-0.365 0.275,-0.48 0.111,-1.09 -0.365,-1.367 z"
   id="path24" />
	<path
   fill-rule="evenodd"
   clip-rule="evenodd"
   fill="#394240"
   d="M 11.974,25.598 8.11,24.562 c -0.536,-0.143 -1.083,0.176 -1.225,0.709 -0.144,0.531 0.171,1.08 0.707,1.225 l 3.863,1.033 c 0.531,0.146 1.081,-0.174 1.225,-0.707 0.145,-0.529 -0.175,-1.076 -0.706,-1.224 z"
   id="path25" />
	<path
   fill-rule="evenodd"
   clip-rule="evenodd"
   fill="#394240"
   d="m 32,20.002 c -0.553,0 -1,0.447 -1,1 0,0.553 0.447,1 1,1 5.522,0 10,4.477 10,10 0,0.553 0.447,1 1,1 0.553,0 1,-0.447 1,-1 0,-6.627 -5.373,-12 -12,-12 z"
   id="path26" />
</g></g><path
       style="display:none;fill:#ff8c7f;fill-opacity:1;fill-rule:evenodd;stroke:#4eab53;stroke-width:1.267;stroke-linecap:round;stroke-linejoin:round;stroke-dasharray:none;stroke-opacity:1;marker-end:url(#marker174);paint-order:normal"
       d="M 65.94714,59.747268 80.120129,45.633152"
       id="path103" /><path
       style="display:none;fill:#ff8c7f;fill-opacity:1;fill-rule:evenodd;stroke:#4eab53;stroke-width:3.067;stroke-linecap:round;stroke-linejoin:round;stroke-dasharray:none;stroke-opacity:1;marker-end:url(#marker174);paint-order:normal"
       d="m 105.86687,64.241299 -0.0196,-20.00204"
       id="path175" /><path
       style="display:none;fill:#ff8c7f;fill-opacity:1;fill-rule:evenodd;stroke:#4eab53;stroke-width:2.067;stroke-linecap:round;stroke-linejoin:round;stroke-dasharray:none;stroke-opacity:1;marker-end:url(#marker174);paint-order:normal"
       d="M 141.90093,60.148784 127.72794,46.034668"
       id="path176" /><path
       style="display:none;fill:#ff8c7f;fill-opacity:1;fill-rule:evenodd;stroke:#4eab53;stroke-width:1.367;stroke-linecap:round;stroke-linejoin:round;stroke-dasharray:none;stroke-opacity:1;marker-end:url(#marker174);paint-order:normal"
       d="m 189.67035,125.95421 -9.89704,-17.38189"
       id="path177" /><path
       style="display:none;fill:#ff8c7f;fill-opacity:1;fill-rule:evenodd;stroke:#4eab53;stroke-width:2.067;stroke-linecap:round;stroke-linejoin:round;stroke-dasharray:none;stroke-opacity:1;marker-end:url(#marker174);paint-order:normal"
       d="m 160.12372,126.73373 1.94944,-19.90683"
       id="path178" /><path
       style="display:none;fill:#ff8c7f;fill-opacity:1;fill-rule:evenodd;stroke:#4eab53;stroke-width:2.767;stroke-linecap:round;stroke-linejoin:round;stroke-dasharray:none;stroke-opacity:1;marker-end:url(#marker174);paint-order:normal"
       d="m 114.91383,126.54662 -4.00416,-19.59716"
       id="path179" /><path
       style="display:none;fill:#ff8c7f;fill-opacity:1;fill-rule:evenodd;stroke:#4eab53;stroke-width:1.967;stroke-linecap:round;stroke-linejoin:round;stroke-dasharray:none;stroke-opacity:1;marker-end:url(#marker174);paint-order:normal"
       d="M 82.619991,121.68728 92.752545,104.44161"
       id="path180" /><path
       style="display:none;fill:#ff8c7f;fill-opacity:1;fill-rule:evenodd;stroke:#4eab53;stroke-width:2.067;stroke-linecap:round;stroke-linejoin:round;stroke-dasharray:none;stroke-opacity:1;marker-end:url(#marker174);paint-order:normal"
       d="m 53.696749,183.35462 7.477093,-18.55195"
       id="path181" /><path
       style="display:none;fill:#ff8c7f;fill-opacity:1;fill-rule:evenodd;stroke:#4eab53;stroke-width:2.567;stroke-linecap:round;stroke-linejoin:round;stroke-dasharray:none;stroke-opacity:1;marker-end:url(#marker174);paint-order:normal"
       d="m 134.56234,190.19829 -6.87043,-18.78508"
       id="path182" /><path
       style="display:none;fill:#ff8c7f;fill-opacity:1;fill-rule:evenodd;stroke:#4eab53;stroke-width:2.567;stroke-linecap:round;stroke-linejoin:round;stroke-dasharray:none;stroke-opacity:1;marker-end:url(#marker174);paint-order:normal"
       d="m 99.394593,185.7734 7.660767,-18.47687"
       id="path183" /><path
       style="display:none;fill:#ff8c7f;fill-opacity:1;fill-rule:evenodd;stroke:#4eab53;stroke-width:2.067;stroke-linecap:round;stroke-linejoin:round;stroke-dasharray:none;stroke-opacity:1;marker-end:url(#marker174);paint-order:normal"
       d="m 176.67885,188.2268 -7.69659,-18.46198"
       id="path184" /><path
       style="display:none;fill:#ff8c7f;fill-opacity:1;fill-rule:evenodd;stroke:#4eab53;stroke-width:1.267;stroke-linecap:round;stroke-linejoin:round;stroke-dasharray:none;stroke-opacity:1;marker-end:url(#marker174);paint-order:normal"
       d="m 26.079004,120.04312 9.878641,-17.39236"
       id="path185" /><path
       style="display:inline;fill:#ff8205;fill-opacity:1;fill-rule:evenodd;stroke:#ff8205;stroke-width:2.067;stroke-linecap:round;stroke-linejoin:round;stroke-dasharray:none;stroke-opacity:1;marker-end:url(#marker174);paint-order:normal"
       d="m 179.50186,161.99266 7.69659,18.46198"
       id="path186" /><path
       style="display:inline;fill:#ff8c7f;fill-opacity:1;fill-rule:evenodd;stroke:#ff8205;stroke-width:2.567;stroke-linecap:round;stroke-linejoin:round;stroke-dasharray:none;stroke-opacity:1;marker-end:url(#marker174);paint-order:normal"
       d="m 138.99181,163.40154 6.87043,18.78508"
       id="path187" /><path
       style="display:inline;fill:#ff8c7f;fill-opacity:1;fill-rule:evenodd;stroke:#ff8205;stroke-width:2.567;stroke-linecap:round;stroke-linejoin:round;stroke-dasharray:none;stroke-opacity:1;marker-end:url(#marker174);paint-order:normal"
       d="m 122.32476,167.38207 -7.66077,18.47687"
       id="path188" /><path
       style="display:inline;fill:#ff8c7f;fill-opacity:1;fill-rule:evenodd;stroke:#ff8205;stroke-width:2.067;stroke-linecap:round;stroke-linejoin:round;stroke-dasharray:none;stroke-opacity:1;marker-end:url(#marker174);paint-order:normal"
       d="m 74.301057,166.47136 -7.477093,18.55195"
       id="path189" /><path
       style="display:none;fill:#ff8c7f;fill-opacity:1;fill-rule:evenodd;stroke:#ff8205;stroke-width:1.267;stroke-linecap:round;stroke-linejoin:round;stroke-dasharray:none;stroke-opacity:1;marker-end:url(#marker174);paint-order:normal"
       d="m 46.55497,105.90998 -9.878641,17.39236"
       id="path190" /><path
       style="display:none;fill:#ff8c7f;fill-opacity:1;fill-rule:evenodd;stroke:#ff8205;stroke-width:1.967;stroke-linecap:round;stroke-linejoin:round;stroke-dasharray:none;stroke-opacity:1;marker-end:url(#marker174);paint-order:normal"
       d="M 105.19518,107.25974 95.062609,124.50541"
       id="path191" /><path
       style="display:none;fill:#ff8c7f;fill-opacity:1;fill-rule:evenodd;stroke:#ff8205;stroke-width:2.767;stroke-linecap:round;stroke-linejoin:round;stroke-dasharray:none;stroke-opacity:1;marker-end:url(#marker174);paint-order:normal"
       d="m 123.07965,100.34164 4.00416,19.59716"
       id="path192" /><path
       style="display:none;fill:#ff8c7f;fill-opacity:1;fill-rule:evenodd;stroke:#ff8205;stroke-width:2.067;stroke-linecap:round;stroke-linejoin:round;stroke-dasharray:none;stroke-opacity:1;marker-end:url(#marker174);paint-order:normal"
       d="m 174.49827,103.51606 -1.94944,19.90683"
       id="path193" /><path
       style="display:none;fill:#ff8c7f;fill-opacity:1;fill-rule:evenodd;stroke:#ff8205;stroke-width:1.367;stroke-linecap:round;stroke-linejoin:round;stroke-dasharray:none;stroke-opacity:1;marker-end:url(#marker174);paint-order:normal"
       d="m 187.60971,102.67668 9.89704,17.38189"
       id="path194" /><path
       style="display:none;fill:#ff8c7f;fill-opacity:1;fill-rule:evenodd;stroke:#ff8205;stroke-width:2.067;stroke-linecap:round;stroke-linejoin:round;stroke-dasharray:none;stroke-opacity:1;marker-end:url(#marker174);paint-order:normal"
       d="m 134.07917,37.581448 14.17299,14.114116"
       id="path195" /><path
       style="display:none;fill:#ff8c7f;fill-opacity:1;fill-rule:evenodd;stroke:#ff8205;stroke-width:3.067;stroke-linecap:round;stroke-linejoin:round;stroke-dasharray:none;stroke-opacity:1;marker-end:url(#marker174);paint-order:normal"
       d="m 118.00019,38.512019 0.0196,20.00204"
       id="path196" /><path
       style="display:none;fill:#ff8c7f;fill-opacity:1;fill-rule:evenodd;stroke:#ff8205;stroke-width:1.267;stroke-linecap:round;stroke-linejoin:round;stroke-dasharray:none;stroke-opacity:1;marker-end:url(#marker174);paint-order:normal"
       d="M 90.271749,52.51693 76.09876,66.631046"
       id="path197" /><path
       style="display:none;fill:#ff8c7f;fill-opacity:1;fill-rule:evenodd;stroke:#2660a4;stroke-width:1.377;stroke-linejoin:round;stroke-dasharray:none;stroke-opacity:1;marker-end:url(#RoundedArrow)"
       d="m 116.19119,47.063655 -1.0084,-10.631467"
       id="path169"
       transform="translate(1.6666668e-8,-1.2708333e-5)" /><path
       style="display:none;fill:#ff8c7f;fill-opacity:1;fill-rule:evenodd;stroke:#2660a4;stroke-width:1.377;stroke-linejoin:round;stroke-dasharray:none;stroke-opacity:1;marker-end:url(#RoundedArrow)"
       d="m 106.14966,47.055813 1.12562,-10.619699"
       id="path170"
       transform="translate(1.6666668e-8,-1.2708333e-5)" /><path
       style="display:none;fill:#ff8c7f;fill-opacity:1;fill-rule:evenodd;stroke:#2660a4;stroke-width:1.377;stroke-linejoin:round;stroke-dasharray:none;stroke-opacity:1;marker-end:url(#RoundedArrow)"
       d="m 116.46494,106.42135 -1.0084,-10.631467"
       id="path198" /><path
       style="display:none;fill:#ff8c7f;fill-opacity:1;fill-rule:evenodd;stroke:#2660a4;stroke-width:1.377;stroke-linejoin:round;stroke-dasharray:none;stroke-opacity:1;marker-end:url(#RoundedArrow)"
       d="m 106.42341,106.41351 1.12562,-10.619701"
       id="path199" /><path
       style="display:none;fill:#ff8c7f;fill-opacity:1;fill-rule:evenodd;stroke:#2660a4;stroke-width:1.377;stroke-linejoin:round;stroke-dasharray:none;stroke-opacity:1;marker-end:url(#RoundedArrow)"
       d="m 174.73461,107.06793 -1.0084,-10.631464"
       id="path200" /><path
       style="display:none;fill:#ff8c7f;fill-opacity:1;fill-rule:evenodd;stroke:#2660a4;stroke-width:1.377;stroke-linejoin:round;stroke-dasharray:none;stroke-opacity:1;marker-end:url(#RoundedArrow)"
       d="M 164.69308,107.06009 165.8187,96.440392"
       id="path201" /><path
       style="display:none;fill:#ff8c7f;fill-opacity:1;fill-rule:evenodd;stroke:#2660a4;stroke-width:1.377;stroke-linejoin:round;stroke-dasharray:none;stroke-opacity:1;marker-end:url(#RoundedArrow)"
       d="m 57.207674,107.06794 -1.0084,-10.631466"
       id="path202" /><path
       style="display:none;fill:#ff8c7f;fill-opacity:1;fill-rule:evenodd;stroke:#2660a4;stroke-width:1.377;stroke-linejoin:round;stroke-dasharray:none;stroke-opacity:1;marker-end:url(#RoundedArrow)"
       d="m 47.166144,107.0601 1.12562,-10.6197"
       id="path203" /><path
       style="display:none;fill:#ff8c7f;fill-opacity:1;fill-rule:evenodd;stroke:#2660a4;stroke-width:1.377;stroke-linejoin:round;stroke-dasharray:none;stroke-opacity:1;marker-end:url(#RoundedArrow)"
       d="M 22.874506,168.79946 21.866106,158.168"
       id="path204" /><path
       style="display:none;fill:#ff8c7f;fill-opacity:1;fill-rule:evenodd;stroke:#2660a4;stroke-width:1.377;stroke-linejoin:round;stroke-dasharray:none;stroke-opacity:1;marker-end:url(#RoundedArrow)"
       d="m 12.832977,168.79162 1.12562,-10.6197"
       id="path205" /><path
       style="display:none;fill:#ff8c7f;fill-opacity:1;fill-rule:evenodd;stroke:#2660a4;stroke-width:1.377;stroke-linejoin:round;stroke-dasharray:none;stroke-opacity:1;marker-end:url(#RoundedArrow)"
       d="m 80.487517,169.58593 -1.0084,-10.63146"
       id="path206" /><path
       style="display:none;fill:#ff8c7f;fill-opacity:1;fill-rule:evenodd;stroke:#2660a4;stroke-width:1.377;stroke-linejoin:round;stroke-dasharray:none;stroke-opacity:1;marker-end:url(#RoundedArrow)"
       d="m 70.445987,169.57809 1.12562,-10.6197"
       id="path207" /><path
       style="display:none;fill:#ff8c7f;fill-opacity:1;fill-rule:evenodd;stroke:#2660a4;stroke-width:1.377;stroke-linejoin:round;stroke-dasharray:none;stroke-opacity:1;marker-end:url(#RoundedArrow)"
       d="m 128.82903,168.79054 -1.0084,-10.63146"
       id="path208" /><path
       style="display:none;fill:#ff8c7f;fill-opacity:1;fill-rule:evenodd;stroke:#2660a4;stroke-width:1.377;stroke-linejoin:round;stroke-dasharray:none;stroke-opacity:1;marker-end:url(#RoundedArrow)"
       d="m 118.7875,168.7827 1.12562,-10.6197"
       id="path209" /><path
       style="display:none;fill:#ff8c7f;fill-opacity:1;fill-rule:evenodd;stroke:#2660a4;stroke-width:1.377;stroke-linejoin:round;stroke-dasharray:none;stroke-opacity:1;marker-end:url(#RoundedArrow)"
       d="m 168.80616,168.79054 -1.0084,-10.63146"
       id="path210" /><path
       style="display:none;fill:#ff8c7f;fill-opacity:1;fill-rule:evenodd;stroke:#2660a4;stroke-width:1.377;stroke-linejoin:round;stroke-dasharray:none;stroke-opacity:1;marker-end:url(#RoundedArrow)"
       d="m 158.76463,168.7827 1.12562,-10.6197"
       id="path211" /><path
       style="display:none;fill:#ff8c7f;fill-opacity:1;fill-rule:evenodd;stroke:#2660a4;stroke-width:1.377;stroke-linejoin:round;stroke-dasharray:none;stroke-opacity:1;marker-end:url(#RoundedArrow)"
       d="m 210.62029,168.79054 -1.0084,-10.63146"
       id="path212" /><path
       style="display:none;fill:#ff8c7f;fill-opacity:1;fill-rule:evenodd;stroke:#2660a4;stroke-width:1.377;stroke-linejoin:round;stroke-dasharray:none;stroke-opacity:1;marker-end:url(#RoundedArrow)"
       d="m 200.57876,168.7827 1.12562,-10.6197"
       id="path213" /><path
       style="display:none;fill:#ff8c7f;fill-opacity:1;fill-rule:evenodd;stroke:#2660a4;stroke-width:1.377;stroke-linejoin:round;stroke-dasharray:none;stroke-opacity:1;marker-end:url(#RoundedArrow)"
       d="m 196.05028,230.00433 -1.0084,-10.63146"
       id="path214" /><path
       style="display:none;fill:#ff8c7f;fill-opacity:1;fill-rule:evenodd;stroke:#2660a4;stroke-width:1.377;stroke-linejoin:round;stroke-dasharray:none;stroke-opacity:1;marker-end:url(#RoundedArrow)"
       d="m 186.00875,229.99649 1.12562,-10.6197"
       id="path215" /><path
       style="display:none;fill:#ff8c7f;fill-opacity:1;fill-rule:evenodd;stroke:#2660a4;stroke-width:1.377;stroke-linejoin:round;stroke-dasharray:none;stroke-opacity:1;marker-end:url(#RoundedArrow)"
       d="m 150.87995,229.61643 -1.0084,-10.63146"
       id="path216" /><path
       style="display:none;fill:#ff8c7f;fill-opacity:1;fill-rule:evenodd;stroke:#2660a4;stroke-width:1.377;stroke-linejoin:round;stroke-dasharray:none;stroke-opacity:1;marker-end:url(#RoundedArrow)"
       d="m 140.83842,229.60859 1.12562,-10.6197"
       id="path217" /><path
       style="display:none;fill:#ff8c7f;fill-opacity:1;fill-rule:evenodd;stroke:#2660a4;stroke-width:1.377;stroke-linejoin:round;stroke-dasharray:none;stroke-opacity:1;marker-end:url(#RoundedArrow)"
       d="m 103.16728,229.61643 -1.0084,-10.63146"
       id="path218" /><path
       style="display:none;fill:#ff8c7f;fill-opacity:1;fill-rule:evenodd;stroke:#2660a4;stroke-width:1.377;stroke-linejoin:round;stroke-dasharray:none;stroke-opacity:1;marker-end:url(#RoundedArrow)"
       d="m 93.125742,229.60859 1.12562,-10.6197"
       id="path219" /><path
       style="display:none;fill:#ff8c7f;fill-opacity:1;fill-rule:evenodd;stroke:#2660a4;stroke-width:1.377;stroke-linejoin:round;stroke-dasharray:none;stroke-opacity:1;marker-end:url(#RoundedArrow)"
       d="m 56.241075,229.61643 -1.0084,-10.63146"
       id="path220" /><path
       style="display:none;fill:#ff8c7f;fill-opacity:1;fill-rule:evenodd;stroke:#2660a4;stroke-width:1.377;stroke-linejoin:round;stroke-dasharray:none;stroke-opacity:1;marker-end:url(#RoundedArrow)"
       d="m 46.199541,229.60859 1.12562,-10.6197"
       id="path221" /><text
       xml:space="preserve"
       style="font-style:normal;font-variant:normal;font-weight:normal;font-stretch:normal;font-size:19.7556px;line-height:1;font-family:'Fira Math';-inkscape-font-specification:'Fira Math, Normal';font-variant-ligatures:normal;font-variant-caps:normal;font-variant-numeric:normal;font-variant-east-asian:normal;letter-spacing:-0.132292px;word-spacing:0.0555625px;fill:#ff0000;fill-opacity:1;fill-rule:evenodd;stroke:none;stroke-width:3.82701;stroke-linecap:round;stroke-linejoin:round;stroke-dasharray:3.82701, 7.654"
       x="25.364733"
       y="-202.54523"
       id="text1"
       transform="scale(1,-1)"><tspan
         id="tspan1"
         style="font-style:normal;font-variant:normal;font-weight:normal;font-stretch:normal;font-size:19.7556px;font-family:'Fira Math';-inkscape-font-specification:'Fira Math, Normal';font-variant-ligatures:normal;font-variant-caps:normal;font-variant-numeric:normal;font-variant-east-asian:normal;fill:#ff0000;fill-opacity:1;stroke:none;stroke-width:3.827"
         x="25.364733"
         y="-202.54523">6</tspan></text></g></svg>
