<?xml version="1.0" encoding="UTF-8" standalone="no"?>
<!-- Uploaded to: SVG Repo, www.svgrepo.com, Generator: SVG Repo Mixer Tools -->

<svg
   version="1.1"
   id="Capa_1"
   viewBox="0 0 389.30301 389"
   xml:space="preserve"
   sodipodi:docname="plant-svgrepo-com.svg"
   inkscape:version="1.3.2 (091e20e, 2023-11-25)"
   width="389.30301"
   height="389"
   xmlns:inkscape="http://www.inkscape.org/namespaces/inkscape"
   xmlns:sodipodi="http://sodipodi.sourceforge.net/DTD/sodipodi-0.dtd"
   xmlns:xlink="http://www.w3.org/1999/xlink"
   xmlns="http://www.w3.org/2000/svg"
   xmlns:svg="http://www.w3.org/2000/svg"><defs
   id="defs9"><linearGradient
     id="linearGradient67"
     inkscape:collect="always"><stop
       style="stop-color:#63360e;stop-opacity:1;"
       offset="0"
       id="stop67" /><stop
       style="stop-color:#775907;stop-opacity:1;"
       offset="1"
       id="stop68" /></linearGradient><linearGradient
     id="linearGradient65"
     inkscape:collect="always"><stop
       style="stop-color:#14874d;stop-opacity:1;"
       offset="0"
       id="stop65" /><stop
       style="stop-color:#69df4d;stop-opacity:1;"
       offset="1"
       id="stop66" /></linearGradient><linearGradient
     id="linearGradient63"
     inkscape:collect="always"><stop
       style="stop-color:#14874d;stop-opacity:1;"
       offset="0"
       id="stop63" /><stop
       style="stop-color:#69df4d;stop-opacity:1;"
       offset="1"
       id="stop64" /></linearGradient><linearGradient
     id="linearGradient61"
     inkscape:collect="always"><stop
       style="stop-color:#14874d;stop-opacity:1;"
       offset="0"
       id="stop61" /><stop
       style="stop-color:#69df4d;stop-opacity:1;"
       offset="1"
       id="stop62" /></linearGradient><linearGradient
     id="linearGradient59"
     inkscape:collect="always"><stop
       style="stop-color:#14874d;stop-opacity:1;"
       offset="0"
       id="stop59" /><stop
       style="stop-color:#69df4d;stop-opacity:1;"
       offset="1"
       id="stop60" /></linearGradient><linearGradient
     id="linearGradient57"
     inkscape:collect="always"><stop
       style="stop-color:#14874d;stop-opacity:1;"
       offset="0"
       id="stop57" /><stop
       style="stop-color:#69df4d;stop-opacity:1;"
       offset="1"
       id="stop58" /></linearGradient><linearGradient
     inkscape:collect="always"
     xlink:href="#linearGradient57"
     id="linearGradient58"
     x1="16.492998"
     y1="29.175173"
     x2="25.092999"
     y2="29.175173"
     gradientUnits="userSpaceOnUse"
     gradientTransform="matrix(1.7229018,0,0,1.7229018,-0.82560544,-1.2680932)" /><linearGradient
     inkscape:collect="always"
     xlink:href="#linearGradient59"
     id="linearGradient60"
     x1="16.292999"
     y1="17.292999"
     x2="25.292999"
     y2="17.292999"
     gradientUnits="userSpaceOnUse"
     gradientTransform="matrix(1.7229018,0,0,1.7229018,-0.82560544,-1.2680932)" /><linearGradient
     inkscape:collect="always"
     xlink:href="#linearGradient61"
     id="linearGradient62"
     x1="23"
     y1="7.4583926"
     x2="36"
     y2="7.4583926"
     gradientUnits="userSpaceOnUse"
     gradientTransform="matrix(1.7229018,0,0,1.7229018,-0.82560544,-1.2680932)" /><linearGradient
     inkscape:collect="always"
     xlink:href="#linearGradient63"
     id="linearGradient64"
     x1="34.049999"
     y1="19.241957"
     x2="42.950001"
     y2="19.241957"
     gradientUnits="userSpaceOnUse"
     gradientTransform="matrix(1.7229018,0,0,1.7229018,-0.82560544,-1.2680932)" /><linearGradient
     inkscape:collect="always"
     xlink:href="#linearGradient65"
     id="linearGradient66"
     x1="34.5"
     y1="30"
     x2="42.5"
     y2="30"
     gradientUnits="userSpaceOnUse"
     gradientTransform="matrix(1.7229018,0,0,1.7229018,-0.82560544,-1.2680932)" /><linearGradient
     inkscape:collect="always"
     xlink:href="#linearGradient67"
     id="linearGradient68"
     x1="20.49975"
     y1="23.5"
     x2="38.500252"
     y2="23.5"
     gradientUnits="userSpaceOnUse"
     gradientTransform="matrix(1.7229018,0,0,1.7229018,-0.82560544,-1.2680932)" /></defs><sodipodi:namedview
   id="namedview9"
   pagecolor="#ffffff"
   bordercolor="#000000"
   borderopacity="0.25"
   inkscape:showpageshadow="2"
   inkscape:pageopacity="0.0"
   inkscape:pagecheckerboard="0"
   inkscape:deskcolor="#d1d1d1"
   inkscape:zoom="1.6422881"
   inkscape:cx="150.39992"
   inkscape:cy="192.11002"
   inkscape:window-width="1680"
   inkscape:window-height="1116"
   inkscape:window-x="244"
   inkscape:window-y="25"
   inkscape:window-maximized="0"
   inkscape:current-layer="layer2" />












<g
   inkscape:groupmode="layer"
   id="layer2"
   inkscape:label="Layer 1"><g
     id="g1"
     transform="matrix(3.8900002,0,0,3.8900002,-0.66280882,-1.4903515)"><circle
       style="fill:url(#linearGradient62);stroke:none;stroke-width:3.73302;stroke-linecap:round;stroke-miterlimit:10"
       cx="50"
       cy="11.581986"
       id="circle1"
       r="11.198863" /><circle
       style="fill:url(#linearGradient64);stroke:none;stroke-width:3.83345;stroke-linecap:round;stroke-miterlimit:10"
       cx="65.506119"
       cy="31.883905"
       id="circle2"
       r="7.666913" /><circle
       style="fill:url(#linearGradient60);stroke:none;stroke-width:3.87653;stroke-linecap:round;stroke-miterlimit:10"
       cx="34.998692"
       cy="28.526047"
       id="circle3"
       r="7.7530584" /><circle
       style="fill:url(#linearGradient66);stroke:none;stroke-width:3.4458;stroke-linecap:round;stroke-miterlimit:10"
       cx="65.506119"
       cy="50.418972"
       id="circle4"
       r="6.8916078" /><circle
       style="fill:url(#linearGradient58);fill-opacity:1;stroke:none;stroke-width:3.70425;stroke-linecap:round;stroke-miterlimit:10"
       cx="34.998692"
       cy="48.997871"
       id="circle5"
       r="7.4084783" /><path
       style="fill:url(#linearGradient68);stroke-width:1.7229"
       d="m 62.565124,50.923774 -8.1097,8.1097 H 51.722902 V 43.527357 h 3.445804 c 0.223977,0 0.447954,-0.04651 0.658147,-0.132668 0.211919,-0.08787 0.401437,-0.213639 0.561667,-0.373868 l 8.612787,-8.612787 c 0.673654,-0.673657 0.673654,-1.762529 0,-2.436184 -0.673656,-0.673654 -1.762529,-0.673654 -2.436183,0 l -8.1097,8.109698 H 51.722902 V 12.515122 c 0,-0.952764 -0.77186,-1.722901 -1.722903,-1.722901 -0.951041,0 -1.7229,0.770137 -1.7229,1.722901 V 36.635749 H 45.544577 L 37.434876,28.52605 c -0.673655,-0.673655 -1.762528,-0.673655 -2.436182,0 -0.673655,0.673654 -0.673655,1.762529 0,2.436184 l 8.612787,8.612787 c 0.158509,0.16022 0.349748,0.286001 0.561666,0.373869 0.210193,0.08614 0.43417,0.132668 0.658147,0.132668 h 3.445805 v 17.22902 h -2.732522 l -8.109701,-8.1097 c -0.673655,-0.673654 -1.762528,-0.673654 -2.436182,0 -0.673655,0.673655 -0.673655,1.76253 0,2.436184 l 8.612787,8.612787 c 0.158509,0.160221 0.349748,0.286 0.561666,0.373868 0.210193,0.08614 0.43417,0.132667 0.658147,0.132667 h 3.445805 v 5.168708 c 0,0.952763 0.771859,1.722901 1.7229,1.722901 0.951043,0 1.722903,-0.770138 1.722903,-1.722901 v -3.445815 h 3.445804 c 0.223977,0 0.447954,-0.04651 0.658147,-0.132667 0.211919,-0.08786 0.401437,-0.213639 0.561667,-0.37387 l 8.612787,-8.612787 c 0.673654,-0.673654 0.673654,-1.762527 0,-2.436182 -0.673656,-0.673655 -1.762529,-0.673655 -2.436183,0 z"
       id="path5" /><rect
       x="29.325176"
       y="65.925079"
       style="fill:#d4dde1;stroke-width:1.7229"
       width="41.349644"
       height="10.337411"
       id="rect5" /><polygon
       style="fill:#c7c7c7"
       points="19.5,45 39.5,45 34.885,59 24.115,59 "
       id="polygon5"
       transform="matrix(1.7229019,0,0,1.7229019,-0.82560544,-1.2680931)" /><path
       style="fill:#ffffff;stroke-width:1.7229"
       d="M 51.722902,83.154101 H 41.385491 c -0.951042,0 -1.722902,-0.770136 -1.722902,-1.722902 0,-0.952765 0.77186,-1.722903 1.722902,-1.722903 h 10.337411 c 0.951042,0 1.722902,0.770138 1.722902,1.722903 0,0.952766 -0.77186,1.722902 -1.722902,1.722902 z"
       id="path6" /><path
       style="fill:#ffffff;stroke-width:1.7229"
       d="m 56.891608,83.154101 c -0.447955,0 -0.895909,-0.189521 -1.223261,-0.499641 -0.310123,-0.327353 -0.499641,-0.775307 -0.499641,-1.223261 0,-0.466908 0.189518,-0.897633 0.499641,-1.223261 0.654703,-0.637473 1.809047,-0.637473 2.44652,0 0.310123,0.310122 0.499643,0.756353 0.499643,1.223261 0,0.447954 -0.18952,0.895908 -0.499643,1.223261 -0.32735,0.31012 -0.775304,0.499641 -1.223259,0.499641 z"
       id="path7" /><path
       style="fill:#ffffff;stroke-width:1.7229"
       d="m 49.999999,88.322806 h -3.445802 c -0.951043,0 -1.722903,-0.770136 -1.722903,-1.722902 0,-0.952765 0.77186,-1.722901 1.722903,-1.722901 h 3.445802 c 0.951043,0 1.722903,0.770136 1.722903,1.722901 0,0.952766 -0.77186,1.722902 -1.722903,1.722902 z"
       id="path8" /><path
       style="fill:#ffffff;stroke-width:1.7229"
       d="m 41.385491,88.322806 c -0.447956,0 -0.89591,-0.189519 -1.22326,-0.499641 -0.310123,-0.327353 -0.499642,-0.758078 -0.499642,-1.223261 0,-0.447953 0.189519,-0.897633 0.499642,-1.22326 0.637473,-0.637473 1.809045,-0.637473 2.446521,0 0.310122,0.325627 0.499641,0.775307 0.499641,1.22326 0,0.465183 -0.189519,0.895908 -0.51687,1.223261 -0.310124,0.310122 -0.758078,0.499641 -1.206032,0.499641 z"
       id="path9" /></g></g></svg>
